<?xml version="1.0" encoding="UTF-8"?>
<svg width="121px" height="112px" viewBox="0 0 121 112" version="1.1" xmlns="http://www.w3.org/2000/svg" xmlns:xlink="http://www.w3.org/1999/xlink">
    <!-- Generator: Sketch 50.2 (55047) - http://www.bohemiancoding.com/sketch -->
    <title>icon-free-pickup</title>
    <desc>Created with Sketch.</desc>
    <defs></defs>
    <g id="Marketing-Pages" stroke="none" stroke-width="1" fill="none" fill-rule="evenodd">
        <g id="Non-HubSpot-Home-Page" transform="translate(-614.000000, -2508.000000)">
            <g id="icon-free-pickup" transform="translate(607.000000, 2496.000000)">
                <g id="Group-16">
                    <path d="M123,67.5 C123,97.5989874 98.5989875,122 68.5,122 C38.4010125,122 14,97.5989874 14,67.5 C14,37.4010125 38.4010125,13 68.5,13 C98.5989875,13 123,37.4010125 123,67.5" id="Fill-1" fill="#00A2C7" fill-rule="nonzero" opacity="0.12" transform="translate(68.500000, 67.500000) scale(-1, 1) translate(-68.500000, -67.500000) "></path>
                    <path d="M14.5985,93.537234 L120.962136,93.537234" id="Stroke-5" stroke="#33424F" stroke-width="1.5" stroke-linecap="round" stroke-linejoin="round"></path>
                    <path d="M8.46213636,93.537234 L11.8712273,93.537234" id="Stroke-7" stroke="#33424F" stroke-width="1.5" stroke-linecap="round" stroke-linejoin="round"></path>
                    <path d="M123.689409,93.537234 L127.0985,93.537234" id="Stroke-9" stroke="#33424F" stroke-width="1.5" stroke-linecap="round" stroke-linejoin="round"></path>
                </g>
                <path d="M86.4123546,16.5657182 C86.4123546,14.6657568 84.8717492,13.1264614 82.9701708,13.1264614 L53.7109276,13.1264614 C51.8107114,13.1264614 50.2687438,14.6657568 50.2687438,16.5657182 L50.2687438,43.2209788 C50.2687438,45.1195791 51.8093492,46.6602356 53.7109276,46.6602356 L60.0259114,46.6602356 C60.8159654,46.6602356 61.4561816,47.2999074 61.4561816,48.0892896 L61.4561816,51.8075521 C61.4561816,52.3859788 61.8048951,52.9072432 62.3388627,53.1290869 C62.8741924,53.3495696 63.4885276,53.2270791 63.8985384,52.8187779 L69.6427762,47.0780637 C69.9111222,46.8099459 70.2748195,46.6602356 70.6535005,46.6602356 L82.9701708,46.6602356 C84.8717492,46.6602356 86.4123546,45.1195791 86.4123546,43.2196178 L86.4123546,16.5657182 Z" id="Fill-3" fill="#FFFFFF" fill-rule="nonzero" transform="translate(68.340549, 33.181916) scale(-1, 1) translate(-68.340549, -33.181916) "></path>
                <path d="M82.5658162,80.7297297 L82.5658162,81.6540579 C82.5658162,86.7210699 78.4875027,89.9569486 75.6814486,89.9569486 L73.9610378,89.9569486 C72.5362162,89.9569486 71.3783784,91.1966872 71.3783784,92.7226317 C71.3783784,94.2500366 72.5362162,95.4912356 73.9610378,95.4912356 L75.6814486,95.4912356 C81.3684757,95.4912356 87.7284108,89.5743672 87.7284108,81.6540579 L87.7284108,80.7297297 L82.5658162,80.7297297 Z" id="Fill-128-Copy" fill="#FFCEBF" fill-rule="nonzero"></path>
                <path d="M81.1486448,80.7297297 L87.7284108,80.7297297 L87.7284108,82.4020561 C87.7284108,89.8084958 81.6186434,96.1097394 75.2581214,96.1097394 L73.5895572,96.1097394 C71.7735204,96.1097394 70.2983531,94.5900283 70.2983531,92.7184653 C70.2983531,90.8481132 71.7736654,89.3299131 73.5895572,89.3299131 L75.2581214,89.3299131 C78.0355118,89.3299131 81.1486448,86.1809579 81.1486448,82.4020561 L81.1486448,80.7297297 Z M82.7213969,82.4020561 C82.7213969,87.0835823 78.8974461,90.9515347 75.2581214,90.9515347 L73.5895572,90.9515347 C72.6415887,90.9515347 71.8711052,91.7444164 71.8711052,92.7184653 C71.8711052,93.6941224 72.6418281,94.4881178 73.5895572,94.4881178 L75.2581214,94.4881178 C80.7499452,94.4881178 86.1556585,88.9129929 86.1556585,82.4020561 L86.1556585,82.3513514 L82.7213969,82.3513514 L82.7213969,82.4020561 Z" id="Stroke-129-Copy" fill="#33424F" fill-rule="nonzero"></path>
                <path d="M87.2231654,16.5657182 L87.2231654,43.2196178 C87.2231654,45.5676925 85.3192326,47.4710464 82.9701708,47.4710464 L70.6535005,47.4710464 C70.4889131,47.4710464 70.3315871,47.5360108 70.2159301,47.6515694 L64.4706692,53.3933044 C63.8290673,54.0322309 62.8674304,54.2236723 62.0277807,53.8778472 C61.1911509,53.5302588 60.6453708,52.7134912 60.6453708,51.8075521 L60.6453708,48.0892896 C60.6453708,47.7478603 60.3683213,47.4710464 60.0259114,47.4710464 L53.7109276,47.4710464 C51.3621259,47.4710464 49.457933,45.5679526 49.457933,43.2209788 L49.457933,16.5657182 C49.457933,14.2182241 51.3626463,12.3156506 53.7109276,12.3156506 L82.9701708,12.3156506 C85.3193933,12.3156506 87.2231654,14.2178038 87.2231654,16.5657182 Z M85.6015438,16.5657182 C85.6015438,15.1137097 84.4241051,13.9372722 82.9701708,13.9372722 L53.7109276,13.9372722 C52.2578354,13.9372722 51.0795546,15.1142293 51.0795546,16.5657182 L51.0795546,43.2209788 C51.0795546,44.6721459 52.2575132,45.8494248 53.7109276,45.8494248 L60.0259114,45.8494248 C61.2636095,45.8494248 62.2669924,46.8519544 62.2669924,48.0892896 L62.2669924,51.8075521 C62.2669924,52.0578761 62.4180934,52.2840009 62.6476418,52.3793739 C62.8806445,52.4753391 63.1477503,52.422164 63.3253845,52.2452723 L69.0696903,46.50449 C69.4898542,46.0846835 70.0595858,45.8494248 70.6535005,45.8494248 L82.9701708,45.8494248 C84.4237462,45.8494248 85.6015438,44.6719852 85.6015438,43.2196178 L85.6015438,16.5657182 Z" id="Stroke-5" fill="#33424F" fill-rule="nonzero" transform="translate(68.340549, 33.181784) scale(-1, 1) translate(-68.340549, -33.181784) "></path>
                <polygon id="Fill-7" fill="#FFCEBF" fill-rule="nonzero" transform="translate(100.804006, 112.592507) scale(-1, 1) translate(-100.804006, -112.592507) " points="103.201412 116.567318 103.570558 108.617695 98.0374551 108.617695 98.0374551 116.567318"></polygon>
                <polygon id="Fill-9" fill="#D1A294" fill-rule="nonzero" transform="translate(100.803734, 110.604352) scale(-1, 1) translate(-100.803734, -110.604352) " points="103.385712 112.590057 103.569604 108.618648 98.0378638 108.618648 98.0378638 112.590057"></polygon>
                <path d="M104.01133,116.604929 C103.991237,117.037637 103.634568,117.378129 103.201392,117.378129 L98.0374357,117.378129 C97.5896372,117.378129 97.2266248,117.015117 97.2266248,116.567318 L97.2266248,108.617695 C97.2266248,108.169897 97.5896372,107.806884 98.0374357,107.806884 L103.570538,107.806884 C104.033101,107.806884 104.401933,108.19324 104.380476,108.655305 L104.01133,116.604929 Z M102.721203,109.428506 L98.8482465,109.428506 L98.8482465,115.756508 L102.427358,115.756508 L102.721203,109.428506 Z" id="Stroke-11" fill="#33424F" fill-rule="nonzero" transform="translate(100.803996, 112.592507) scale(-1, 1) translate(-100.803996, -112.592507) "></path>
                <polygon id="Fill-13" fill="#FFCEBF" fill-rule="nonzero" transform="translate(89.125237, 112.592507) scale(-1, 1) translate(-89.125237, -112.592507) " points="86.7278314 116.567318 86.3586854 108.617695 91.8917881 108.617695 91.8917881 116.567318"></polygon>
                <polygon id="Fill-15" fill="#D1A294" fill-rule="nonzero" transform="translate(89.125645, 110.604352) scale(-1, 1) translate(-89.125645, -110.604352) " points="86.543667 112.590057 86.3597751 108.618648 91.8915157 108.618648 91.8915157 112.590057"></polygon>
                <path d="M91.0809968,115.756508 L91.0809968,109.428506 L87.2080399,109.428506 L87.5018849,115.756508 L91.0809968,115.756508 Z M85.9179128,116.604929 L85.5487668,108.655305 C85.5273105,108.19324 85.896142,107.806884 86.3587049,107.806884 L91.8918076,107.806884 C92.3396061,107.806884 92.7026184,108.169897 92.7026184,108.617695 L92.7026184,116.567318 C92.7026184,117.015117 92.3396061,117.378129 91.8918076,117.378129 L86.7278508,117.378129 C86.2946756,117.378129 85.938006,117.037637 85.9179128,116.604929 Z" id="Stroke-17" fill="#33424F" fill-rule="nonzero" transform="translate(89.125247, 112.592507) scale(-1, 1) translate(-89.125247, -112.592507) "></path>
                <path d="M109.594175,80.7761834 C109.594175,73.1776989 103.430391,67.0177953 95.8268022,67.0177953 C88.2218508,67.0177953 82.0567049,73.1776989 82.0567049,80.7761834 L82.0567049,82.4951313 L87.2206616,82.4951313 L87.2206616,93.6730561 L106.151991,93.6730561 L106.151991,82.4951313 L109.594175,82.4951313 L109.594175,80.7761834 Z" id="Fill-19" fill="#428EC3" fill-rule="nonzero" transform="translate(95.825440, 80.345426) scale(-1, 1) translate(-95.825440, -80.345426) "></path>
                <path d="M95.8374561,43.5246912 C91.0835102,43.5246912 87.2326778,47.3736101 87.2326778,52.1235135 L87.2326778,53.8424615 C84.7739751,53.8424615 84.9428832,58.1418725 87.663121,58.1418725 L87.6685697,58.1391506 C88.7705588,61.6205984 91.989348,64.1602317 95.8374561,64.1602317 C100.59004,64.1602317 104.442235,60.3113128 104.442235,55.5614092 L104.442235,52.1235135 C104.442235,47.3736101 100.59004,43.5246912 95.8374561,43.5246912" id="Fill-21" fill="#FFCEBF" fill-rule="nonzero" transform="translate(94.970765, 53.842461) scale(-1, 1) translate(-94.970765, -53.842461) "></path>
                <path d="M86.4221881,52.1235135 C86.4221881,46.9254372 90.6364075,42.7138804 95.8377773,42.7138804 C101.038236,42.7138804 105.253367,46.9258874 105.253367,52.1235135 L105.253367,55.5614092 C105.253367,60.7590354 101.038236,64.9710425 95.8377773,64.9710425 C91.8960084,64.9710425 88.4480076,62.5121595 87.0690144,58.897515 C85.6967434,58.6352414 84.7962134,57.4680821 84.6972694,56.048545 C84.603862,54.7084394 85.260714,53.5283885 86.4221881,53.1545551 L86.4221881,52.1235135 Z M95.8377773,44.335502 C91.531775,44.335502 88.0438098,47.8212635 88.0438098,52.1235135 L88.0438098,53.8424615 C88.0438098,54.2902598 87.6807973,54.6532723 87.232999,54.6532723 C86.625793,54.6532723 86.2612103,55.1645594 86.3149662,55.935789 C86.3723145,56.7585576 86.8835749,57.3310617 87.6634422,57.3310617 C88.0164877,57.3310617 88.3289533,57.5595065 88.4360481,57.8959166 C89.4631401,61.1222576 92.4281286,63.3494209 95.8377773,63.3494209 C100.142908,63.3494209 103.631745,59.8631692 103.631745,55.5614092 L103.631745,52.1235135 C103.631745,47.8217535 100.142908,44.335502 95.8377773,44.335502 Z" id="Stroke-23" fill="#33424F" fill-rule="nonzero" transform="translate(94.970927, 53.842461) scale(-1, 1) translate(-94.970927, -53.842461) "></path>
                <path d="M94.5337016,54.9167018 C94.5337016,55.5100994 95.0145449,55.9918948 95.6098097,55.9918948 C96.2037124,55.9918948 96.6859178,55.5100994 96.6859178,54.9167018 C96.6859178,54.3246651 96.2037124,53.8428696 95.6098097,53.8428696 C95.0145449,53.8428696 94.5337016,54.3246651 94.5337016,54.9167018 Z" id="Fill-25" fill="#33424F" fill-rule="nonzero" transform="translate(95.609810, 54.917382) scale(-1, 1) translate(-95.609810, -54.917382) "></path>
                <path d="M88.0800497,54.9167018 C88.0800497,55.5100994 88.5622551,55.9918948 89.1561578,55.9918948 C89.7514227,55.9918948 90.2322659,55.5100994 90.2322659,54.9167018 C90.2322659,54.3246651 89.7514227,53.8428696 89.1561578,53.8428696 C88.5622551,53.8428696 88.0800497,54.3246651 88.0800497,54.9167018 Z" id="Fill-27" fill="#33424F" fill-rule="nonzero" transform="translate(89.156158, 54.917382) scale(-1, 1) translate(-89.156158, -54.917382) "></path>
                <path d="M98.4064649,57.4963484 C98.4064649,57.9713388 98.0223351,58.3565029 97.5455784,58.3565029 C97.0715459,58.3565029 96.6860541,57.9713388 96.6860541,57.4963484 C96.6860541,57.0213581 97.0715459,56.6361939 97.5455784,56.6361939 C98.0223351,56.6361939 98.4064649,57.0213581 98.4064649,57.4963484" id="Fill-29" fill="#FFB59E" fill-rule="nonzero" transform="translate(97.546259, 57.496348) scale(-1, 1) translate(-97.546259, -57.496348) "></path>
                <path d="M90.1428094,60.5627652 C89.7988077,60.2760839 89.7523401,59.7648142 90.0390214,59.4208123 C90.3257029,59.0768105 90.8369726,59.030343 91.1809743,59.3170243 C91.8252819,59.8539719 92.608193,59.9248771 93.2937979,59.522341 C93.3904888,59.4664596 93.4877384,59.3980011 93.5852679,59.3167956 C93.9293961,59.0302659 94.4406452,59.0769588 94.7271749,59.421087 C95.0137046,59.7652152 94.9670116,60.2764643 94.6228836,60.562994 C94.4562337,60.7017508 94.2837191,60.8231918 94.1100512,60.923539 C92.8346035,61.6724285 91.3084956,61.5342148 90.1428094,60.5627652 Z" id="Stroke-31" fill="#33424F" fill-rule="nonzero" transform="translate(92.382984, 60.265445) scale(-1, 1) translate(-92.382984, -60.265445) "></path>
                <path d="M100.127557,55.7767201 L100.127557,46.1040656 L104.430627,46.1040656 L104.430627,51.4773088 C104.430627,53.8522606 102.50453,55.7767201 100.127557,55.7767201" id="Fill-33" fill="#FFE600" fill-rule="nonzero" transform="translate(102.279092, 50.940393) scale(-1, 1) translate(-102.279092, -50.940393) "></path>
                <path d="M103.619816,51.4773088 L103.619816,46.9148764 L100.938368,46.9148764 L100.938368,54.8714594 C102.476438,54.5063733 103.619816,53.1254962 103.619816,51.4773088 Z M99.3167459,55.7767201 L99.3167459,46.1040656 C99.3167459,45.6562672 99.6797583,45.2932548 100.127557,45.2932548 L104.430627,45.2932548 C104.878426,45.2932548 105.241438,45.6562672 105.241438,46.1040656 L105.241438,51.4773088 C105.241438,54.3002136 102.952174,56.5875309 100.127557,56.5875309 C99.6797583,56.5875309 99.3167459,56.2245185 99.3167459,55.7767201 Z" id="Stroke-35" fill="#33424F" fill-rule="nonzero" transform="translate(102.279092, 50.940393) scale(-1, 1) translate(-102.279092, -50.940393) "></path>
                <path d="M95.8259849,67.0180676 C88.2210335,67.0180676 82.0572497,73.177971 82.0572497,80.7764556 L82.0572497,82.4954034 L82.2997146,82.4954034 C83.4929686,76.1109344 89.0887308,71.2739266 95.8259849,71.2739266 C102.561877,71.2739266 108.159001,76.1109344 109.350893,82.4954034 L109.593358,82.4954034 L109.593358,80.7764556 C109.593358,73.177971 103.429574,67.0180676 95.8259849,67.0180676" id="Fill-37" fill="#64AEE2" fill-rule="nonzero" transform="translate(95.825304, 74.756735) scale(-1, 1) translate(-95.825304, -74.756735) "></path>
                <path d="M82.0567049,83.3059421 C81.6089064,83.3059421 81.2458941,82.9429298 81.2458941,82.4951313 L81.2458941,80.7761834 C81.2458941,72.7297458 87.7742067,66.2069845 95.8268022,66.2069845 C103.878023,66.2069845 110.404986,72.729734 110.404986,80.7761834 L110.404986,82.4951313 C110.404986,82.9429298 110.041974,83.3059421 109.594175,83.3059421 L106.962802,83.3059421 L106.962802,93.6730561 C106.962802,94.1208544 106.59979,94.4838669 106.151991,94.4838669 L87.2206616,94.4838669 C86.7728631,94.4838669 86.4098508,94.1208544 86.4098508,93.6730561 L86.4098508,83.3059421 L82.0567049,83.3059421 Z M108.783364,80.7761834 C108.783364,73.6255653 102.982661,67.8286061 95.8268022,67.8286061 C88.6694949,67.8286061 82.8675157,73.6256517 82.8675157,80.7761834 L82.8675157,81.6843205 L87.2206616,81.6843205 C87.6684601,81.6843205 88.0314724,82.0473328 88.0314724,82.4951313 L88.0314724,92.8622452 L105.341181,92.8622452 L105.341181,82.4951313 C105.341181,82.0473328 105.704193,81.6843205 106.151991,81.6843205 L108.783364,81.6843205 L108.783364,80.7761834 Z" id="Stroke-39" fill="#33424F" fill-rule="nonzero" transform="translate(95.825440, 80.345426) scale(-1, 1) translate(-95.825440, -80.345426) "></path>
                <path d="M108.163905,121.042435 C108.163905,122.226509 101.760381,123.186016 93.8612022,123.186016 C85.9620238,123.186016 79.5584995,122.226509 79.5584995,121.042435 C79.5584995,119.859723 85.9620238,118.898854 93.8612022,118.898854 C101.760381,118.898854 108.163905,119.859723 108.163905,121.042435" id="Fill-41" fill-opacity="0.15" fill="#020202" fill-rule="nonzero" transform="translate(93.861202, 121.042435) scale(-1, 1) translate(-93.861202, -121.042435) "></path>
                <path d="M100.343596,40.9449083 L89.5852389,40.9449083 C87.3267741,40.9449083 85.4987524,42.7727365 85.4987524,45.0279198 L85.4987524,48.6835763 L104.430082,48.6835763 L104.430082,45.0279198 C104.430082,42.7727365 102.600698,40.9449083 100.343596,40.9449083" id="Fill-43" fill="#428EC3" fill-rule="nonzero" transform="translate(94.964417, 44.814242) scale(-1, 1) translate(-94.964417, -44.814242) "></path>
                <path d="M100.343596,40.1340975 C103.048342,40.1340975 105.240893,42.3247836 105.240893,45.0279198 L105.240893,48.6835763 C105.240893,49.1313746 104.877881,49.4943871 104.430082,49.4943871 L85.4987524,49.4943871 C85.0509539,49.4943871 84.6879416,49.1313746 84.6879416,48.6835763 L84.6879416,45.0279198 C84.6879416,42.3243552 86.8795587,40.1340975 89.5852389,40.1340975 L100.343596,40.1340975 Z M103.619271,45.0279198 C103.619271,43.2206894 102.153054,41.7557191 100.343596,41.7557191 L89.5852389,41.7557191 C87.7749304,41.7557191 86.3095632,43.2201774 86.3095632,45.0279198 L86.3095632,47.8727655 L103.619271,47.8727655 L103.619271,45.0279198 Z" id="Stroke-45" fill="#33424F" fill-rule="nonzero" transform="translate(94.964417, 44.814242) scale(-1, 1) translate(-94.964417, -44.814242) "></path>
                <path d="M100.214587,40.2196113 L100.939457,41.6702039 C100.802165,41.7388099 100.544179,41.8830649 100.206461,42.0986727 C99.638552,42.4612406 99.0702831,42.8871024 98.5426679,43.3703267 C97.0809772,44.7090385 96.223876,46.2074077 96.223876,47.8234211 L94.6022544,47.8234211 C94.6022544,45.6786406 95.6816369,43.7916829 97.4474192,42.1744644 C98.0494195,41.6231131 98.691453,41.1419721 99.3338464,40.7318514 C99.7223102,40.4838459 100.029132,40.3122843 100.214587,40.2196113 Z" id="Stroke-49" fill="#33424F" fill-rule="nonzero" transform="translate(97.770856, 44.021516) scale(-1, 1) translate(-97.770856, -44.021516) "></path>
                <path d="M88.9899222,41.6702039 L89.7147929,40.2196113 C89.9002478,40.3122843 90.2070693,40.4838459 90.595533,40.7318514 C91.2379264,41.1419721 91.8799599,41.6231131 92.4819603,42.1744644 C94.2477425,43.7916829 95.3271251,45.6786406 95.3271251,47.8234211 L93.7055035,47.8234211 C93.7055035,46.2074077 92.8484023,44.7090385 91.3867115,43.3703267 C90.8590964,42.8871024 90.2908275,42.4612406 89.7229185,42.0986727 C89.3852009,41.8830649 89.1272145,41.7388099 88.9899222,41.6702039 Z" id="Stroke-53" fill="#33424F" fill-rule="nonzero" transform="translate(92.158524, 44.021516) scale(-1, 1) translate(-92.158524, -44.021516) "></path>
                <path d="M91.3973232,109.149984 C92.1574097,109.149984 92.7853665,108.555225 92.8248692,107.797146 L93.1694962,101.409955 C93.2117232,100.450447 94.0031395,99.6923678 94.9648259,99.6923678 C95.9278746,99.6923678 96.7192908,100.450447 96.7615178,101.409955 L97.1034205,107.797146 C97.1456476,108.555225 97.7722422,109.149984 98.5323286,109.149984 L103.001583,109.149984 C103.790275,109.149984 104.430491,108.510312 104.430491,107.72093 L104.430491,91.9536998 L95.8257124,91.9536998 L94.1053016,91.9536998 L85.4991611,91.9536998 L85.4991611,107.72093 C85.4991611,108.510312 86.1393773,109.149984 86.9294314,109.149984 L91.3973232,109.149984 Z" id="Fill-55" fill="#DEA47A" fill-rule="nonzero" transform="translate(94.964826, 100.551842) scale(-1, 1) translate(-94.964826, -100.551842) "></path>
                <polygon id="Fill-57" fill="#BF8256" fill-rule="nonzero" transform="translate(94.964281, 95.393229) scale(-1, 1) translate(-94.964281, -95.393229) " points="85.4986162 97.1128572 104.429946 97.1128572 104.429946 93.6736004 85.4986162 93.6736004"></polygon>
                <path d="M93.9784355,101.445825 L93.6347769,107.841062 C93.5707096,109.029567 92.5869488,109.961067 91.3962335,109.961067 L86.9283416,109.961067 C85.6906435,109.961067 84.6872605,108.958537 84.6872605,107.721202 L84.6872605,91.9539721 C84.6872605,91.5061736 85.0502729,91.1431612 85.4980714,91.1431612 L104.430763,91.1431612 C104.878562,91.1431612 105.241574,91.5061736 105.241574,91.9539721 L105.241574,107.721202 C105.241574,108.958187 104.23718,109.961067 103.000493,109.961067 L98.5326011,109.961067 C97.340879,109.961067 96.358144,109.029922 96.2940505,107.84093 L95.9503991,101.445825 C95.9272303,100.918624 95.4929618,100.503451 94.9637362,100.503451 C94.4357583,100.503451 94.0015992,100.918738 93.9784355,101.445825 Z M94.9637362,98.8818291 C96.3605015,98.8818291 97.5091671,99.9799862 97.5700705,101.366714 L97.9133283,107.753774 C97.9310317,108.082188 98.2025425,108.339445 98.5326011,108.339445 L103.000493,108.339445 C103.34213,108.339445 103.619952,108.062042 103.619952,107.721202 L103.619952,92.7647829 L86.3088822,92.7647829 L86.3088822,107.721202 C86.3088822,108.062631 86.5859317,108.339445 86.9283416,108.339445 L91.3962335,108.339445 C91.7255208,108.339445 91.9978347,108.081597 92.0154992,107.753906 L92.3585708,101.370312 C92.4220253,99.9780216 93.5694716,98.8818291 94.9637362,98.8818291 Z" id="Stroke-59" fill="#33424F" fill-rule="nonzero" transform="translate(94.964417, 100.552114) scale(-1, 1) translate(-94.964417, -100.552114) "></path>
                <path d="M92.3824389,120.327772 C92.3824389,117.249182 89.3706984,116.029722 86.7063092,116.029722 L84.3470443,116.029722 C83.5569903,116.029722 82.9167741,116.669394 82.9167741,117.458776 L82.9167741,118.898718 C82.9167741,119.6881 83.5569903,120.327772 84.3470443,120.327772 L92.3824389,120.327772 Z" id="Fill-60" fill="#87898C" fill-rule="nonzero" transform="translate(87.649606, 118.178747) scale(-1, 1) translate(-87.649606, -118.178747) "></path>
                <path d="M93.1932497,120.327772 C93.1932497,120.775571 92.8302374,121.138583 92.3824389,121.138583 L84.3470443,121.138583 C83.1093462,121.138583 82.1059632,120.136053 82.1059632,118.898718 L82.1059632,117.458776 C82.1059632,116.221441 83.1093462,115.218911 84.3470443,115.218911 L86.7063092,115.218911 C90.3084132,115.218911 93.1932497,117.051019 93.1932497,120.327772 Z M86.7063092,116.840533 L84.3470443,116.840533 C84.0046344,116.840533 83.7275849,117.117347 83.7275849,117.458776 L83.7275849,118.898718 C83.7275849,119.240147 84.0046344,119.516961 84.3470443,119.516961 L91.469675,119.516961 C91.023645,117.823115 89.15641,116.840533 86.7063092,116.840533 Z" id="Stroke-61" fill="#33424F" fill-rule="nonzero" transform="translate(87.649606, 118.178747) scale(-1, 1) translate(-87.649606, -118.178747) "></path>
                <path d="M104.430355,120.327772 C104.430355,117.249182 101.418614,116.029722 98.7542249,116.029722 L96.39496,116.029722 C95.6049059,116.029722 94.9646897,116.669394 94.9646897,117.458776 L94.9646897,118.898718 C94.9646897,119.6881 95.6049059,120.327772 96.39496,120.327772 L104.430355,120.327772 Z" id="Fill-62" fill="#87898C" fill-rule="nonzero" transform="translate(99.697522, 118.178747) scale(-1, 1) translate(-99.697522, -118.178747) "></path>
                <path d="M105.241165,120.327772 C105.241165,120.775571 104.878153,121.138583 104.430355,121.138583 L96.39496,121.138583 C95.1572618,121.138583 94.1538789,120.136053 94.1538789,118.898718 L94.1538789,117.458776 C94.1538789,116.221441 95.1572618,115.218911 96.39496,115.218911 L98.7542249,115.218911 C102.356329,115.218911 105.241165,117.051019 105.241165,120.327772 Z M98.7542249,116.840533 L96.39496,116.840533 C96.0525501,116.840533 95.7755005,117.117347 95.7755005,117.458776 L95.7755005,118.898718 C95.7755005,119.240147 96.0525501,119.516961 96.39496,119.516961 L103.517591,119.516961 C103.071561,117.823115 101.204326,116.840533 98.7542249,116.840533 Z" id="Stroke-63" fill="#33424F" fill-rule="nonzero" transform="translate(99.697522, 118.178747) scale(-1, 1) translate(-99.697522, -118.178747) "></path>
                <path d="M109.594584,97.9728755 C109.594584,99.3964856 108.438108,100.551978 107.013286,100.551978 C105.587103,100.551978 104.430627,99.3964856 104.430627,97.9728755 L104.430627,82.4941786 L109.594584,82.4941786 L109.594584,97.9728755 Z" id="Fill-64" fill="#FFCEBF" fill-rule="nonzero" transform="translate(107.012605, 91.523078) scale(-1, 1) translate(-107.012605, -91.523078) "></path>
                <path d="M105.241438,97.9728755 C105.241438,98.9486769 106.034891,99.7411669 107.013286,99.7411669 C107.990464,99.7411669 108.783773,98.9485325 108.783773,97.9728755 L108.783773,83.3049894 L105.241438,83.3049894 L105.241438,97.9728755 Z M110.405395,97.9728755 C110.405395,99.8444384 108.885752,101.362789 107.013286,101.362789 C105.139735,101.362789 103.619816,99.8447151 103.619816,97.9728755 L103.619816,82.4941786 C103.619816,82.0463801 103.982829,81.6833678 104.430627,81.6833678 L109.594584,81.6833678 C110.042382,81.6833678 110.405395,82.0463801 110.405395,82.4941786 L110.405395,97.9728755 Z" id="Stroke-65" fill="#33424F" fill-rule="nonzero" transform="translate(107.012605, 91.523078) scale(-1, 1) translate(-107.012605, -91.523078) "></path>
                <g id="Group-68" transform="translate(81.108108, 74.243243)">
                    <g id="Group" transform="translate(3.924324, 5.415058) scale(-1, 1) translate(-3.924324, -5.415058) translate(1.491892, 1.361004)">
                        <path d="M1.96611243,6.89047588 L1.96611243,1.73227124" id="Fill-66" fill="#00B8F0"></path>
                        <path d="M2.77692324,6.89047588 C2.77692324,7.33827431 2.41391088,7.70128669 1.96611243,7.70128669 C1.51831399,7.70128669 1.15530162,7.33827431 1.15530162,6.89047588 L1.15530162,1.73227124 C1.15530162,1.28447279 1.51831399,0.921460425 1.96611243,0.921460425 C2.41391088,0.921460425 2.77692324,1.28447279 2.77692324,1.73227124 L2.77692324,6.89047588 Z" id="Stroke-67" fill="#1A1816" fill-rule="nonzero"></path>
                    </g>
                </g>
                <g id="Group-71" transform="translate(100.567568, 74.243243)">
                    <g id="Group" transform="translate(3.535135, 5.415058) scale(-1, 1) translate(-3.535135, -5.415058) translate(1.102703, 1.361004)">
                        <path d="M2.10450811,6.89047588 L2.10450811,1.73227124" id="Fill-69" fill="#00B8F0"></path>
                        <path d="M2.91531892,6.89047588 C2.91531892,7.33827431 2.55230655,7.70128669 2.10450811,7.70128669 C1.65670966,7.70128669 1.2936973,7.33827431 1.2936973,6.89047588 L1.2936973,1.73227124 C1.2936973,1.28447279 1.65670966,0.921460425 2.10450811,0.921460425 C2.55230655,0.921460425 2.91531892,1.28447279 2.91531892,1.73227124 L2.91531892,6.89047588 Z" id="Stroke-70" fill="#33424F" fill-rule="nonzero"></path>
                    </g>
                </g>
                <path d="M94.6764108,67.7567568 C93.3428541,67.7567568 92.056973,67.9554633 90.8378378,68.3093243 L95.5359351,76.3555791 L99.9452541,68.8047297 C98.3215568,68.1323939 96.542573,67.7567568 94.6764108,67.7567568" id="Fill-72" fill="#FFCEBF" fill-rule="nonzero" transform="translate(95.391546, 72.056168) scale(-1, 1) translate(-95.391546, -72.056168) "></path>
                <path d="M94.3945244,66.2072568 C96.3276402,66.2072568 98.2138594,66.5882594 99.9735642,67.316913 C100.427653,67.5049406 100.611378,68.0504923 100.363541,68.4749068 L95.9542219,76.0257562 C95.6412592,76.5616971 94.8667931,76.5616786 94.553856,76.0257229 L89.8557587,67.979468 C89.5896125,67.5236495 89.8230287,66.9390952 90.3299371,66.7919621 C91.6568851,66.4068078 93.0180261,66.2072568 94.3945244,66.2072568 Z M94.3945244,67.8288784 C93.5223219,67.8288784 92.6562029,67.9193198 91.801639,68.0960508 L95.254087,74.0089288 L98.4775704,68.4887932 C97.169788,68.0541122 95.7964471,67.8288784 94.3945244,67.8288784 Z" id="Stroke-73" fill="#33424F" fill-rule="nonzero" transform="translate(95.109574, 71.317479) scale(-1, 1) translate(-95.109574, -71.317479) "></path>
                <path d="M94.2489449,69.3445676 C93.5011179,68.8437182 92.6988044,68.415002 91.8569882,68.0665849 L87.4490314,75.6174344 C89.797399,73.6888919 91.9850314,72.7443552 94.3620044,72.308834 C94.7951719,72.2285347 95.0676044,71.7970966 94.9273017,71.3792683 L94.2489449,69.3445676 Z" id="Fill-74" fill="#64AEE2" fill-rule="nonzero" transform="translate(91.206724, 71.842010) scale(-1, 1) translate(-91.206724, -71.842010) "></path>
                <path d="M94.7064097,68.6708892 C94.8557167,68.770886 94.967574,68.9176499 95.0244093,69.0881248 L95.7022116,71.1211684 C96.0007228,72.010149 95.430503,72.9365472 94.5144083,73.1063681 C92.1365489,73.5420518 90.1025368,74.4926405 87.9698851,76.2440311 C87.2709036,76.8180536 86.2990852,75.9897813 86.7550787,75.2086624 L91.1630355,67.6578129 C91.3673802,67.3077696 91.7988258,67.1624008 92.173339,67.3174071 C93.0642608,67.6861483 93.9138738,68.1400964 94.7064097,68.6708892 Z M92.19719,69.1028339 L89.9356857,72.9768009 C91.2701814,72.2758984 92.6430235,71.8093752 94.1287066,71.5286843 L93.5752304,69.8685575 C93.1338814,69.58655 92.6734096,69.3306967 92.19719,69.1028339 Z" id="Stroke-75" fill="#33424F" fill-rule="nonzero" transform="translate(91.209863, 71.845440) scale(-1, 1) translate(-91.209863, -71.845440) "></path>
                <path d="M102.480076,75.6170261 L97.7819783,67.5721322 C97.1921621,67.7422577 96.6186918,67.9491304 96.0642918,68.194111 L95.0018054,71.3788601 C94.8615026,71.7966883 95.1339351,72.2294874 95.5671026,72.3084257 C97.9440756,72.7439469 100.131708,73.6884836 102.480076,75.6170261" id="Fill-76" fill="#64AEE2" fill-rule="nonzero" transform="translate(98.722383, 71.594579) scale(-1, 1) translate(-98.722383, -71.594579) "></path>
                <path d="M103.174229,75.2081417 C103.630385,75.989251 102.658526,76.8176921 101.959488,76.2436228 C99.8268363,74.4922322 97.792824,73.5416435 95.4157289,73.1060994 C94.499678,72.939163 93.9284799,72.0102477 94.2266585,71.1222628 L95.289145,67.9375137 C95.3614153,67.720887 95.5216872,67.5447805 95.7305669,67.4524797 C96.3150962,67.1941854 96.9226445,66.9743981 97.5512606,66.7930812 C97.9079389,66.6902016 98.2889288,66.8426876 98.4761313,67.1632478 L103.174229,75.2081417 Z M97.401906,68.5394214 C97.1679663,68.6192063 96.9378775,68.7052034 96.7117552,68.7974049 L95.800685,71.528287 C97.2863673,71.809124 98.6588429,72.2755077 99.9927769,72.9759581 L97.401906,68.5394214 Z" id="Stroke-77" fill="#33424F" fill-rule="nonzero" transform="translate(98.719378, 71.598029) scale(-1, 1) translate(-98.719378, -71.598029) "></path>
                <g id="Group-80" transform="translate(90.837838, 74.243243)">
                    <g id="Group" transform="translate(3.729730, 3.503861) scale(-1, 1) translate(-3.729730, -3.503861) translate(1.297297, 0.260617)">
                        <path d="M2.03531027,1.11316506 L2.03531027,5.41257626" id="Fill-78" fill="#FFCEBF"></path>
                        <path d="M1.22449946,1.11316506 C1.22449946,0.665366612 1.58751182,0.302354248 2.03531027,0.302354248 C2.48310872,0.302354248 2.84612108,0.665366612 2.84612108,1.11316506 L2.84612108,5.41257626 C2.84612108,5.8603747 2.48310872,6.22338707 2.03531027,6.22338707 C1.58751182,6.22338707 1.22449946,5.8603747 1.22449946,5.41257626 L1.22449946,1.11316506 Z" id="Stroke-79" fill="#33424F" fill-rule="nonzero"></path>
                    </g>
                </g>
                <polygon id="Fill-81" fill="#87898C" fill-rule="nonzero" transform="translate(94.964281, 92.814807) scale(-1, 1) translate(-94.964281, -92.814807) " points="85.4986162 94.5351158 104.429946 94.5351158 104.429946 91.094498 85.4986162 91.094498"></polygon>
                <path d="M85.4986162,95.3459266 C85.0508177,95.3459266 84.6878054,94.9829143 84.6878054,94.5351158 L84.6878054,91.094498 C84.6878054,90.6466997 85.0508177,90.2836872 85.4986162,90.2836872 L104.429946,90.2836872 C104.877744,90.2836872 105.240757,90.6466997 105.240757,91.094498 L105.240757,94.5351158 C105.240757,94.9829143 104.877744,95.3459266 104.429946,95.3459266 L85.4986162,95.3459266 Z M103.619135,93.724305 L103.619135,91.9053088 L86.309427,91.9053088 L86.309427,93.724305 L103.619135,93.724305 Z" id="Stroke-82" fill="#33424F" fill-rule="nonzero" transform="translate(94.964281, 92.814807) scale(-1, 1) translate(-94.964281, -92.814807) "></path>
                <polygon id="Fill-83" fill="#FFE600" fill-rule="nonzero" transform="translate(94.964962, 92.814807) scale(-1, 1) translate(-94.964962, -92.814807) " points="92.3829838 94.5351158 97.5469405 94.5351158 97.5469405 91.094498 92.3829838 91.094498"></polygon>
                <path d="M92.3829838,95.3459266 C91.9351853,95.3459266 91.572173,94.9829143 91.572173,94.5351158 L91.572173,91.094498 C91.572173,90.6466997 91.9351853,90.2836872 92.3829838,90.2836872 L97.5469405,90.2836872 C97.994739,90.2836872 98.3577514,90.6466997 98.3577514,91.094498 L98.3577514,94.5351158 C98.3577514,94.9829143 97.994739,95.3459266 97.5469405,95.3459266 L92.3829838,95.3459266 Z M96.7361297,93.724305 L96.7361297,91.9053088 L93.1937946,91.9053088 L93.1937946,93.724305 L96.7361297,93.724305 Z" id="Stroke-84" fill="#33424F" fill-rule="nonzero" transform="translate(94.964962, 92.814807) scale(-1, 1) translate(-94.964962, -92.814807) "></path>
                <path d="M84.6883957,48.6833041 L86.6430984,51.2869045 C87.0040714,51.7686998 87.6293038,51.9728504 88.2054984,51.7959198 C91.8383849,50.6867018 97.6153146,50.5737385 102.658039,51.8149739 C103.21925,51.9524354 103.807704,51.7401187 104.150969,51.2760164 C104.494234,50.8119142 104.524201,50.1872133 104.225888,49.6918079 L103.619725,48.6833041 C100.178904,46.9643561 91.5727633,46.9643561 84.6883957,48.6833041" id="Fill-85" fill="#64AEE2" fill-rule="nonzero" transform="translate(94.559511, 49.626491) scale(-1, 1) translate(-94.559511, -49.626491) "></path>
                <path d="M84.0405541,49.1701097 C83.6922367,48.7061623 83.9296755,48.0371861 84.4925433,47.8966444 C91.5468122,46.1352742 100.334159,46.1352742 103.982652,47.9579696 C104.120492,48.0268311 104.235857,48.1335437 104.315235,48.2656084 L104.921057,49.2735463 C105.388519,50.0498545 105.341977,51.0300168 104.803415,51.7581665 C104.265778,52.4850635 103.344244,52.8176906 102.464815,52.6022851 C97.7301507,51.4368768 92.0725504,51.4631405 88.4440713,52.5710118 C87.5410898,52.8482879 86.5609643,52.5287679 85.9952568,51.7737101 L84.0405541,49.1701097 Z M86.0846993,49.1919138 L87.292556,50.8007401 C87.4486361,51.0090622 87.7191669,51.097255 87.9692941,51.0204502 C91.8918526,49.8227874 97.8451162,49.7951511 102.851502,51.0274428 C103.095531,51.0872146 103.350851,50.9950572 103.499658,50.7938663 C103.64795,50.5933711 103.660736,50.3241031 103.531513,50.1095036 L103.051468,49.3108274 C99.8805053,47.8850988 92.4294909,47.8295089 86.0846993,49.1919138 Z" id="Stroke-86" fill="#33424F" fill-rule="nonzero" transform="translate(94.559794, 49.626469) scale(-1, 1) translate(-94.559794, -49.626469) "></path>
                <path d="M55.9587676,121.042435 C55.9587676,122.226509 49.5552432,123.186016 41.6560649,123.186016 C33.7568865,123.186016 27.3533622,122.226509 27.3533622,121.042435 C27.3533622,119.859723 33.7568865,118.898854 41.6560649,118.898854 C49.5552432,118.898854 55.9587676,119.859723 55.9587676,121.042435" id="Fill-100" fill-opacity="0.15" fill="#020202" fill-rule="nonzero" transform="translate(41.656065, 121.042435) scale(-1, 1) translate(-41.656065, -121.042435) "></path>
                <polyline id="Fill-1" fill="#FF6800" fill-rule="nonzero" points="68.7808694 19.1081081 61.6486486 19.1081081 67.4894008 30.4591892 61.6486486 41.8108108 68.7808694 41.8102703 74.6216216 30.4591892 68.7808694 19.1081081"></polyline>
                <polyline id="Fill-2" fill="#FF8E40" fill-rule="nonzero" points="74.6216216 30.4594595 68.7808694 19.1081081 61.6486486 19.1081081 67.4894008 30.4594595 74.6216216 30.4594595"></polyline>
                <polygon id="Fill-80" fill="#D18660" fill-rule="nonzero" points="32.1928124 94.3634016 35.0533529 120.800902 45.0652449 120.800902 47.9245417 94.3634016"></polygon>
                <polygon id="Fill-81" fill="#BD704A" fill-rule="nonzero" points="46.3023664 109.368096 47.9254123 94.3630288 32.1924393 94.3630288 33.8167288 109.368096"></polygon>
                <path d="M31.4568027,94.443038 C31.4094301,94.0052143 31.7524333,93.623096 32.1928124,93.623096 L47.9245417,93.623096 C48.364907,93.623096 48.7079059,94.0051916 48.660555,94.4430036 L45.8012583,120.880504 C45.7606081,121.256361 45.4432937,121.541207 45.0652449,121.541207 L35.0533529,121.541207 C34.6753172,121.541207 34.3580094,121.25638 34.3173432,120.880538 L31.4568027,94.443038 Z M35.7178782,120.060596 L44.4006885,120.060596 L47.0998527,95.1037071 L33.0175399,95.1037071 L35.7178782,120.060596 Z" id="Stroke-82" fill="#33424F" fill-rule="nonzero"></path>
                <path d="M39.3192421,105.795461 C39.3192421,105.386602 39.6506881,105.055156 40.0595476,105.055156 C40.468407,105.055156 40.7998532,105.386602 40.7998532,105.795461 L40.7998532,120.78686 C40.7998532,121.195719 40.468407,121.527165 40.0595476,121.527165 C39.6506881,121.527165 39.3192421,121.195719 39.3192421,120.78686 L39.3192421,105.795461 Z" id="Stroke-83" fill="#33424F" fill-rule="nonzero"></path>
                <polygon id="Fill-84" fill="#00B8F0" fill-rule="nonzero" points="47.1525689 105.795461 47.9249148 94.3630288 32.1931855 94.3630288 32.9655315 105.795461"></polygon>
                <path d="M47.8911908,105.845361 C47.8649375,106.233966 47.54206,106.535767 47.1525689,106.535767 L32.9655315,106.535767 C32.5760403,106.535767 32.2531628,106.233966 32.2269096,105.845361 L31.4545636,94.4129282 C31.4256811,93.9854024 31.7646853,93.6227232 32.1931855,93.6227232 L47.9249148,93.6227232 C48.353415,93.6227232 48.6924192,93.9854024 48.6635367,94.4129282 L47.8911908,105.845361 Z M47.1329086,95.1033343 L32.9851917,95.1033343 L33.6575113,105.055156 L46.460589,105.055156 L47.1329086,95.1033343 Z" id="Stroke-85" fill="#33424F" fill-rule="nonzero"></path>
                <path d="M52.9314826,80.7870153 C52.9314826,73.6839952 47.1681152,67.9255288 40.0590502,67.9255288 C32.949985,67.9255288 27.1866177,73.6839952 27.1866177,80.7870153 L27.1866177,82.2160694 L32.1925637,82.2160694 L32.1925637,94.3630288 L47.9255367,94.3630288 L47.9267803,82.2160694 L52.9314826,82.2160694 L52.9314826,80.7870153 Z" id="Fill-90" fill="#F0F0F0" fill-rule="nonzero"></path>
                <path d="M40.0583039,67.9260258 C32.9504825,67.9260258 27.1858715,73.6832498 27.1858715,80.7875123 L27.1858715,83.6319513 C27.1858715,76.5276886 32.9504825,70.7704648 40.0583039,70.7704648 C47.1686127,70.7704648 52.93198,76.5276886 52.93198,83.6319513 L52.93198,80.7875123 C52.93198,73.6832498 47.1686127,67.9260258 40.0583039,67.9260258" id="Fill-91" fill="#FFFFFF" fill-rule="nonzero"></path>
                <path d="M27.1866177,82.9563748 C26.7777583,82.9563748 26.4463122,82.6249288 26.4463122,82.2160694 L26.4463122,80.7870153 C26.4463122,73.2749949 32.5412665,67.1852232 40.0590502,67.1852232 C47.5768337,67.1852232 53.6717881,73.2749949 53.6717881,80.7870153 L53.6717881,82.2160694 C53.6717881,82.6249288 53.3403421,82.9563748 52.9314826,82.9563748 L48.6670101,82.9563748 L48.6658422,94.3631045 C48.6658003,94.7719345 48.3343665,95.1033343 47.9255367,95.1033343 L32.1925637,95.1033343 C31.7837042,95.1033343 31.4522581,94.7718883 31.4522581,94.3630288 L31.4522581,82.9563748 L27.1866177,82.9563748 Z M52.191177,80.7870153 C52.191177,74.0929958 46.7593966,68.6658343 40.0590502,68.6658343 C33.3587036,68.6658343 27.9269232,74.0929958 27.9269232,80.7870153 L27.9269232,81.4757637 L32.1925637,81.4757637 C32.6014231,81.4757637 32.9328692,81.8072099 32.9328692,82.2160694 L32.9328692,93.6227232 L47.185307,93.6227232 L47.1864749,82.2159935 C47.1865167,81.8071637 47.5179505,81.4757637 47.9267803,81.4757637 L52.191177,81.4757637 L52.191177,80.7870153 Z" id="Stroke-92" fill="#33424F" fill-rule="nonzero"></path>
                <path d="M44.4829383,68.7105143 L41.7517439,70.8826765 L40.0627812,72.2110755 L38.3763061,70.8826765 L35.6451117,68.7105143 C37.0169275,68.1960549 38.5044086,67.925156 40.0627812,67.925156 C41.6223977,67.925156 43.1098788,68.1960549 44.4829383,68.7105143" id="Fill-93" fill="#D18660" fill-rule="nonzero"></path>
                <path d="M40.0627812,68.6654615 C39.0795136,68.6654615 38.1218001,68.7796089 37.2031947,69.0037955 L38.8343885,70.3011159 L40.0631211,71.2689612 L41.2909355,70.3032735 L42.9246379,69.0039641 C42.0052057,68.7796308 41.0469807,68.6654615 40.0627812,68.6654615 Z M44.9437467,69.2899175 L42.2094097,71.4645652 L40.520447,72.7929641 C40.2517373,73.0043091 39.8732571,73.0041735 39.6046989,72.7926362 L37.9154977,71.4620796 L35.1843033,69.2899175 C34.7340117,68.9317934 34.8464571,68.2193744 35.3851605,68.0173494 C36.8529873,67.4668839 38.4297334,67.1848505 40.0627812,67.1848505 C41.6966983,67.1848505 43.2733884,67.466755 44.7426831,68.0172721 C45.2815389,68.2191711 45.3941155,68.9317321 44.9437467,69.2899175 Z" id="Stroke-94" fill="#33424F" fill-rule="nonzero"></path>
                <path d="M47.9250392,80.7870153 L47.9250392,98.2923061 C47.9250392,99.6791099 49.04065,100.793772 50.4286341,100.793772 C51.8153743,100.793772 52.9309851,99.6791099 52.9309851,98.2923061 L52.9309851,80.7870153 L47.9250392,80.7870153 Z" id="Fill-98" fill="#D18660" fill-rule="nonzero"></path>
                <polygon id="Fill-99" fill="#BD704A" fill-rule="nonzero" points="47.9252879 83.6451234 52.9312339 83.6451234 52.9312339 80.7870153 47.9252879 80.7870153"></polygon>
                <path d="M47.1847336,80.7870153 C47.1847336,80.3781558 47.5161797,80.0467097 47.9250392,80.0467097 L52.9309851,80.0467097 C53.3398446,80.0467097 53.6712906,80.3781558 53.6712906,80.7870153 L53.6712906,98.2923061 C53.6712906,100.087862 52.2243415,101.534078 50.4286341,101.534078 C48.6319315,101.534078 47.1847336,100.08811 47.1847336,98.2923061 L47.1847336,80.7870153 Z M48.6653446,98.2923061 C48.6653446,99.2701094 49.4493685,100.053466 50.4286341,100.053466 C51.4067905,100.053466 52.1906795,99.2699748 52.1906795,98.2923061 L52.1906795,81.5273208 L48.6653446,81.5273208 L48.6653446,98.2923061 Z" id="Stroke-100" fill="#33424F" fill-rule="nonzero"></path>
                <path d="M48.6661444,80.8789994 C48.6173333,81.2849347 48.2486884,81.5744412 47.8427529,81.5256301 C47.4368176,81.4768189 47.1473112,81.1081741 47.1961224,80.7022385 C47.2956891,79.8741957 47.6004757,79.0819022 48.084327,78.3989746 C48.380788,77.9827583 48.5900052,77.2284239 48.5900052,76.4860596 C48.5900052,76.0772002 48.9214514,75.7457542 49.3303109,75.7457542 C49.7391702,75.7457542 50.0706163,76.0772002 50.0706163,76.4860596 C50.0706163,77.518995 49.778355,78.5727448 49.2913733,79.2564386 C48.9512946,79.7364427 48.7363405,80.2952165 48.6661444,80.8789994 Z" id="Stroke-112" fill="#33424F" fill-rule="nonzero"></path>
                <path d="M52.7273892,54.0195902 C52.8393235,53.7312941 52.9064839,53.4206301 52.9064839,53.0938117 C52.9064839,51.6722136 51.7535617,50.5215144 50.3319974,50.5215144 C50.2785178,50.5215144 50.2312568,50.5326983 50.1790208,50.5364263 C49.366876,45.6639733 45.1407382,41.9471901 40.0340515,41.9471901 C34.9261211,41.9471901 30.6999834,45.6639733 29.8890823,50.5364263 C29.8368463,50.5326983 29.7883415,50.5215144 29.7361056,50.5215144 C28.3145413,50.5215144 27.1603754,51.6722136 27.1603754,53.0938117 C27.1603754,53.4206301 27.2287796,53.7312941 27.3407138,54.0195902 C25.7699039,54.3339821 24.5871326,55.7183005 24.5871326,57.3809738 C24.5871326,59.2747812 26.1231185,60.8094609 28.0197812,60.8094609 C28.1914137,60.8094609 28.3568275,60.7833651 28.5234851,60.7597548 C28.2100694,61.2766995 28.0197812,61.8769022 28.0197812,62.5255684 C28.0197812,64.4193758 29.5570109,65.9540555 31.4524299,65.9540555 C33.10035,65.9540555 34.4758969,64.7934151 34.809212,63.2463088 C36.2531632,64.3858241 38.0752031,65.0680419 40.0626569,65.0680419 C42.0302114,65.0680419 43.8311082,64.4019785 45.2688406,63.2873164 C45.6158367,64.8145403 46.9814339,65.9540555 48.6144295,65.9540555 C50.5110922,65.9540555 52.0483217,64.4193758 52.0483217,62.5255684 C52.0483217,61.8769022 51.8580337,61.2766995 51.5446178,60.7597548 C51.7112755,60.7833651 51.8754457,60.8094609 52.0483217,60.8094609 C53.9437409,60.8094609 55.4809704,59.2747812 55.4809704,57.3809738 C55.4809704,55.7183005 54.2981991,54.3339821 52.7273892,54.0195902" id="Fill-114" fill="#724F3D" fill-rule="nonzero"></path>
                <path d="M49.6496964,48.5792435 C48.1758961,44.7034004 44.4310754,41.9471901 40.034549,41.9471901 C35.6069297,41.9471901 31.8422096,44.7406801 30.3895525,48.6575308 C33.0287121,46.2989703 36.6976663,45.3458534 40.0631544,45.3458534 C43.3900874,45.3458534 47.0155117,46.2753599 49.6496964,48.5792435" id="Fill-115" fill="#A86C4E" fill-rule="nonzero"></path>
                <path d="M56.221276,57.3809738 C56.221276,59.4767297 54.6733334,61.2108897 52.6578671,61.5056054 C52.7439473,61.8362328 52.7886274,62.1778455 52.7886274,62.5255684 C52.7886274,64.8284559 50.9197315,66.6943611 48.6144295,66.6943611 C47.0185499,66.6943611 45.6065724,65.7920848 44.9069866,64.4378882 C43.4669858,65.3266335 41.8035014,65.8083476 40.0626569,65.8083476 C38.3052172,65.8083476 36.6242962,65.3155877 35.1759323,64.4089663 C34.4808968,65.7782456 33.0604815,66.6943611 31.4524299,66.6943611 C29.1481379,66.6943611 27.2794757,64.8282223 27.2794757,62.5255684 C27.2794757,62.1778578 27.3241526,61.8362569 27.4102269,61.5056405 C25.3941539,61.2110574 23.8468271,59.4771455 23.8468271,57.3809738 C23.8468271,55.6514534 24.907056,54.1419399 26.4489946,53.5172737 C26.4298632,53.3772049 26.4200698,53.2359737 26.4200698,53.0938117 C26.4200698,51.419692 27.6629346,50.0364412 29.2762284,49.8128136 C30.3911084,44.8346691 34.8274148,41.2068845 40.0340515,41.2068845 C45.2395169,41.2068845 49.6757333,44.8346748 50.791732,49.8127986 C52.404813,50.0363702 53.6467895,51.4195457 53.6467895,53.0938117 C53.6467895,53.2359099 53.6371302,53.3770451 53.6182281,53.5169172 C55.1606434,54.1413654 56.221276,55.6511242 56.221276,57.3809738 Z M27.9006809,53.0938117 C27.9006809,53.3107242 27.9448177,53.5301179 28.0308282,53.7516455 C28.1972337,54.1802372 27.9368234,54.6552687 27.4860018,54.745499 C26.2387194,54.9951381 25.3274381,56.093787 25.3274381,57.3809738 C25.3274381,58.8659311 26.5319879,60.0691554 28.0197812,60.0691554 C28.0974423,60.0691554 28.1792477,60.0609701 28.3361071,60.0386874 C29.0380204,59.9391625 29.4803241,60.6094972 29.1565299,61.1435602 C28.8978679,61.5701945 28.7600868,62.0399297 28.7600868,62.5255684 C28.7600868,64.0100551 29.9654092,65.21375 31.4524299,65.21375 C32.727563,65.21375 33.8205317,64.3203155 34.0855117,63.0903917 C34.2008903,62.5548537 34.8377839,62.3257932 35.2678275,62.6651684 C36.6253436,63.7364722 38.2960956,64.3277365 40.0626569,64.3277365 C41.8110504,64.3277365 43.4623864,63.7511096 44.8152439,62.7022504 C45.2431503,62.3704981 45.8707843,62.5953051 45.9907472,63.1232942 C46.2665938,64.3373702 47.3513315,65.21375 48.6144295,65.21375 C50.102543,65.21375 51.3080163,64.0102058 51.3080163,62.5255684 C51.3080163,62.0399297 51.1702352,61.5701945 50.9115731,61.1435602 C50.5877789,60.6094972 51.0300826,59.9391625 51.6484605,60.0267683 C51.7264929,60.0379238 51.7264929,60.0379238 51.758331,60.0424238 C51.8947968,60.0615693 51.9744839,60.0691554 52.0483217,60.0691554 C53.5353424,60.0691554 54.7406649,58.8654605 54.7406649,57.3809738 C54.7406649,56.093787 53.8293836,54.9951381 52.5821012,54.745499 C52.1312797,54.6552687 51.8708693,54.1802372 52.0372748,53.7516455 C52.122435,53.5323082 52.1661784,53.3126733 52.1661784,53.0938117 C52.1661784,52.0833436 51.3479943,51.2644856 50.3369369,51.2618264 C50.3001301,51.2685433 50.3001301,51.2685433 50.2317207,51.2748536 C49.8507252,51.3020444 49.5115894,51.0349084 49.4487896,50.6581418 C48.6863508,46.0839001 44.7199918,42.6874956 40.0340515,42.6874956 C35.3468978,42.6874956 31.3805922,46.0838542 30.6193437,50.6579605 C30.5566259,51.0348121 30.217448,51.3020495 29.8363823,51.2748536 C29.7685227,51.2686174 29.7685227,51.2686174 29.7300948,51.2634081 C28.7130265,51.2712365 27.9006809,52.0878499 27.9006809,53.0938117 Z" id="Stroke-116" fill="#33424F" fill-rule="nonzero"></path>
                <path d="M47.7224442,120.908931 C47.7224442,118.851093 46.0521372,117.180964 43.9913043,117.180964 L39.0164513,117.180964 L39.0164513,120.908931 L47.7224442,120.908931 Z" id="Fill-147" fill="#636568" fill-rule="nonzero"></path>
                <path d="M48.4627498,120.908931 C48.4627498,121.31779 48.1313036,121.649236 47.7224442,121.649236 L39.0164513,121.649236 C38.6075918,121.649236 38.2761457,121.31779 38.2761457,120.908931 L38.2761457,117.180964 C38.2761457,116.772104 38.6075918,116.440658 39.0164513,116.440658 L43.9913043,116.440658 C46.4604645,116.440658 48.4627498,118.441701 48.4627498,120.908931 Z M43.9913043,117.921269 L39.7567568,117.921269 L39.7567568,120.168625 L46.8895381,120.168625 C46.559716,118.877079 45.3870841,117.921269 43.9913043,117.921269 Z" id="Stroke-148" fill="#33424F" fill-rule="nonzero"></path>
                <path d="M42.7868568,120.908931 C42.7868568,118.851093 41.1165499,117.180964 39.0557171,117.180964 L34.5746181,117.180964 L34.6567032,119.707283 C34.6778463,120.377074 35.2288113,120.908931 35.9004165,120.908931 L42.7868568,120.908931 Z" id="Fill-149" fill="#636568" fill-rule="nonzero"></path>
                <path d="M43.5271624,120.908931 C43.5271624,121.31779 43.1957163,121.649236 42.7868568,121.649236 L35.9004165,121.649236 C34.8293855,121.649236 33.9505332,120.800341 33.9167881,119.731324 L33.834703,117.205005 C33.8211194,116.786944 34.1563364,116.440658 34.5746181,116.440658 L39.0557171,116.440658 C41.5248771,116.440658 43.5271624,118.441701 43.5271624,120.908931 Z M39.0557171,117.921269 L35.3393682,117.921269 L35.3966401,119.683925 C35.4051488,119.953469 35.6278974,120.168625 35.9004165,120.168625 L41.9539508,120.168625 C41.6241286,118.877079 40.4514968,117.921269 39.0557171,117.921269 Z" id="Stroke-150" fill="#33424F" fill-rule="nonzero"></path>
                <path d="M47.3967097,56.1454172 L47.3967097,57.3880729 C47.3967097,61.5025059 44.051121,64.844007 39.9344301,64.844007 C36.8624583,64.844007 34.213349,62.9800235 33.0940071,60.3207403 C33.1561927,56.654906 34.1387262,52.7542098 37.4470035,50.5534665 C37.4470035,50.5534665 39.9344301,56.1454172 47.3967097,56.1454172" id="Fill-68" fill="#D18660" fill-rule="nonzero"></path>
                <path d="M39.1284963,53.899916 C38.2558252,53.1151799 37.6242081,52.3270708 37.2030448,51.6550675 C34.9810771,53.489646 33.9284765,56.4320579 33.837487,60.1742294 C34.8981135,62.5386557 37.2746958,64.1037015 39.9344301,64.1037015 C43.642851,64.1037015 46.6564042,61.0930574 46.6564042,57.3880729 L46.6564042,56.8681896 C43.5491813,56.7193484 41.0531554,55.6306363 39.1284963,53.899916 Z M48.1370153,56.1454172 L48.1370153,57.3880729 C48.1370153,61.9110965 44.46025,65.5843126 39.9344301,65.5843126 C36.622838,65.5843126 33.6696516,63.5965706 32.4116826,60.6079434 L32.353808,60.3081839 C32.4319839,55.6997315 33.8553161,52.0535965 37.036972,49.9370848 C37.418686,49.6831597 37.9370786,49.8337011 38.1234083,50.2525863 C38.1848341,50.3906769 38.3302345,50.6598661 38.5680722,51.0163193 C38.9724799,51.6224151 39.4866384,52.2307692 40.1185073,52.7989676 C41.9299199,54.4278528 44.3208081,55.4051116 47.3967097,55.4051116 C47.8055691,55.4051116 48.1370153,55.7365577 48.1370153,56.1454172 Z" id="Stroke-69" fill="#33424F" fill-rule="nonzero"></path>
                <path d="M38.4686251,54.9952996 C37.9537278,54.9952996 37.5358402,55.412832 37.5358402,55.9272914 C37.5358402,56.4429935 37.9537278,56.8592832 38.4686251,56.8592832 C38.9847661,56.8592832 39.4014102,56.4429935 39.4014102,55.9272914 C39.4014102,55.412832 38.9847661,54.9952996 38.4686251,54.9952996" id="Fill-70" fill="#33424F" fill-rule="nonzero"></path>
                <path d="M42.9104583,54.9952996 C42.395561,54.9952996 41.9776733,55.412832 41.9776733,55.9272914 C41.9776733,56.4429935 42.395561,56.8592832 42.9104583,56.8592832 C43.4265994,56.8592832 43.8432432,56.4429935 43.8432432,55.9272914 C43.8432432,55.412832 43.4265994,54.9952996 42.9104583,54.9952996" id="Fill-71" fill="#33424F" fill-rule="nonzero"></path>
                <path d="M36.440188,58.8885135 C36.440188,59.4042156 36.0223004,59.8205054 35.5074031,59.8205054 C34.991262,59.8205054 34.5746181,59.4042156 34.5746181,58.8885135 C34.5746181,58.3740541 34.991262,57.9565217 35.5074031,57.9565217 C36.0223004,57.9565217 36.440188,58.3740541 36.440188,58.8885135" id="Fill-72" fill="#BD704A" fill-rule="nonzero"></path>
                <path d="M38.606202,61.5339806 C38.2658638,61.3074064 38.17364,60.8478328 38.4002144,60.5074946 C38.6267888,60.1671565 39.0863622,60.0749326 39.4267005,60.301507 C40.3075589,60.8879235 41.4555131,60.8879235 42.3376548,60.3012988 C42.6781079,60.0748972 43.1376345,60.1673543 43.3640361,60.5078075 C43.5904376,60.8482608 43.4979805,61.3077873 43.1575274,61.5341889 C41.7785982,62.4511776 39.983927,62.4511776 38.606202,61.5339806 Z" id="Stroke-73" fill="#33424F" fill-rule="nonzero"></path>
                <path d="M40.8058408,93.4797675 L28.3433965,93.4797675 C27.6965447,93.4797675 27.1715635,92.9552326 27.1715635,92.3089309 L27.1715635,79.8559129 C27.1715635,79.2096112 27.6965447,78.6850763 28.3433965,78.6850763 L40.8058408,78.6850763 C41.4526927,78.6850763 41.9776739,79.2096112 41.9776739,79.8559129 L41.9776739,92.3089309 C41.9776739,92.9552326 41.4526927,93.4797675 40.8058408,93.4797675" id="Fill-87" fill="#DEBB7E" fill-rule="nonzero" transform="translate(34.574619, 86.082422) scale(-1, 1) translate(-34.574619, -86.082422) "></path>
                <path d="M40.9018628,92.9066628 C41.179674,92.9066628 41.4052706,92.681258 41.4052706,92.4043126 L41.4052706,79.1874265 C41.4052706,78.9104811 41.179674,78.6850763 40.9018628,78.6850763 L27.6749722,78.6850763 C27.3971609,78.6850763 27.1715644,78.9104811 27.1715644,79.1874265 L27.1715644,92.4043126 C27.1715644,92.681258 27.3971609,92.9066628 27.6749722,92.9066628 L40.9018628,92.9066628 Z M40.9018628,94.3872738 L27.6749722,94.3872738 C26.5797239,94.3872738 25.6909534,93.4992591 25.6909534,92.4043126 L25.6909534,79.1874265 C25.6909534,78.0924802 26.5797239,77.2044654 27.6749722,77.2044654 L40.9018628,77.2044654 C41.9971111,77.2044654 42.8858817,78.0924802 42.8858817,79.1874265 L42.8858817,92.4043126 C42.8858817,93.4992591 41.9971111,94.3872738 40.9018628,94.3872738 Z" id="Stroke-88" fill="#33424F" fill-rule="nonzero" transform="translate(34.288418, 85.795870) scale(-1, 1) translate(-34.288418, -85.795870) "></path>
                <path d="M36.9500024,84.6075205 L33.6798477,84.6075205 C33.3564644,84.6075205 33.0940085,84.3742058 33.0940085,84.0867288 L33.0940085,78.6850763 L37.5358416,78.6850763 L37.5358416,84.0867288 C37.5358416,84.3742058 37.2733856,84.6075205 36.9500024,84.6075205" id="Fill-91" fill="#F7E5C6" fill-rule="nonzero" transform="translate(35.314925, 81.646298) scale(-1, 1) translate(-35.314925, -81.646298) "></path>
                <path d="M36.328314,78.6850763 L33.094008,78.6850763 L33.094008,84.2702057 L36.328314,84.2702057 L36.328314,78.6850763 Z M36.4467629,85.7508168 L32.9755592,85.7508168 C32.2235758,85.7508168 31.613397,85.1411568 31.613397,84.3891832 L31.613397,77.9447709 C31.613397,77.5359114 31.9448431,77.2044654 32.3537025,77.2044654 L37.0686196,77.2044654 C37.477479,77.2044654 37.8089251,77.5359114 37.8089251,77.9447709 L37.8089251,84.3891832 C37.8089251,85.1411568 37.1987463,85.7508168 36.4467629,85.7508168 Z" id="Stroke-92" fill="#33424F" fill-rule="nonzero" transform="translate(34.711161, 81.477641) scale(-1, 1) translate(-34.711161, -81.477641) "></path>
                <path d="M32.3001072,90.705638 C31.8189925,89.2173171 30.6584177,88.6229448 29.7094113,89.3750726 C28.7593877,90.1287941 28.3799886,91.9469676 28.8600861,93.4352885 L29.5385291,95.5355101 C29.6666907,95.9306958 29.8894479,96.2318657 30.1600113,96.368906 C30.4285405,96.5075397 30.7214814,96.4724829 30.9747532,96.2717029 L32.5086242,95.0542757 C33.0344938,94.6367809 33.245045,93.6296944 32.9785502,92.8058595 L32.3001072,90.705638 Z" id="Fill-89" fill="#D18660" fill-rule="nonzero" transform="translate(30.873090, 92.750881) scale(-1, 1) translate(-30.873090, -92.750881) "></path>
                <path d="M33.0328247,90.7467659 L33.8622892,92.3844044 C34.3732134,93.3917448 33.9697472,94.6228066 32.961804,95.1331674 L31.0859653,96.0827178 C30.6010419,96.3278921 30.0393964,96.3706625 29.5281584,96.2023171 C29.0106419,96.0351421 28.582291,95.6680017 28.335391,95.1824511 L27.5056434,93.5442537 C26.7339119,92.0184396 27.344488,90.1554432 28.8707981,89.3831405 C30.3961752,88.6121162 32.2600424,89.2221046 33.0328247,90.7467659 Z M29.5389961,90.7043976 C28.7427139,91.1073112 28.4240608,92.0795889 28.8266807,92.8756215 L29.6557056,94.5123936 C29.7240244,94.6467481 29.8417895,94.7476848 29.9872521,94.7946863 C30.1285783,94.8412202 30.2833202,94.8294362 30.4175904,94.7615503 L32.2930372,93.812198 C32.5712342,93.6713362 32.6825631,93.3316478 32.5416293,93.0537818 L31.7121197,91.4160549 C31.30895,90.6206208 30.3352041,90.3019428 29.5389961,90.7043976 Z" id="Stroke-90" fill="#33424F" fill-rule="nonzero" transform="translate(30.627627, 92.676455) scale(-1, 1) translate(-30.627627, -92.676455) "></path>
            </g>
        </g>
    </g>
</svg>