<?xml version="1.0" encoding="UTF-8"?>
<svg width="122px" height="109px" viewBox="0 0 122 109" version="1.1" xmlns="http://www.w3.org/2000/svg" xmlns:xlink="http://www.w3.org/1999/xlink">
    <!-- Generator: Sketch 50.2 (55047) - http://www.bohemiancoding.com/sketch -->
    <title>icon-amazing-support</title>
    <desc>Created with Sketch.</desc>
    <defs></defs>
    <g id="Marketing-Pages" stroke="none" stroke-width="1" fill="none" fill-rule="evenodd">
        <g id="Non-HubSpot-Home-Page" transform="translate(-1184.000000, -2509.000000)">
            <g id="icon-amazing-support" transform="translate(1177.000000, 2496.000000)">
                <path d="M68.5,13 C38.4010125,13 14,37.4069558 14,67.5132743 C14,75.5335398 15.7453625,83.1422301 18.85595,90 L118.14405,90 C121.253275,83.1422301 123,75.5335398 123,67.5132743 C123,37.4069558 98.5989875,13 68.5,13 Z" id="Fill-1" fill="#67CDCC" opacity="0.12"></path>
                <g id="Group-7" transform="translate(60.000000, 17.000000)">
                    <path d="M26.1681818,38.1279606 C30.4600227,38.1279606 33.9409091,34.6291757 33.9409091,30.3123577 L33.9409091,19.431152 C33.9409091,10.4536296 26.4143182,3.24373596 17.3603864,3.83381398 C9.09797727,4.37178797 2.85,11.6416012 2.85,19.9665208 L2.85,30.3123577 C2.85,34.6291757 6.33088636,38.1279606 10.6227273,38.1279606 L26.1681818,38.1279606 Z" id="Fill-11" fill="#614B44"></path>
                    <path d="M17.3603864,3.83380844 C9.09797727,4.37178244 2.85,11.6415957 2.85,19.9665153 L2.85,23.8743167 C2.85,15.5493971 9.09797727,8.27958385 17.3603864,7.74160986 C26.4143182,7.15153184 33.9409091,14.3627281 33.9409091,23.3389479 L33.9409091,19.4311465 C33.9409091,10.4549266 26.4143182,3.24373043 17.3603864,3.83380844" id="Fill-13" fill="#947063"></path>
                    <path d="M26.1681818,38.1279606 C30.4600227,38.1279606 33.9409091,34.6291757 33.9409091,30.3123577 L33.9409091,19.431152 C33.9409091,10.4536296 26.4143182,3.24373596 17.3603864,3.83381398 C9.09797727,4.37178797 2.85,11.6416012 2.85,19.9665208 L2.85,30.3123577 C2.85,34.6291757 6.33088636,38.1279606 10.6227273,38.1279606 L26.1681818,38.1279606 Z" id="Stroke-15" stroke="#33424F" stroke-width="1.5" stroke-linecap="round" stroke-linejoin="round"></path>
                    <path d="M31.6090909,22.5544823 L31.6090909,19.4282411 C31.6090909,19.0622104 31.5831818,18.7026927 31.5546818,18.3444775 C29.5065682,19.5246336 27.1410682,20.2098014 24.6110455,20.2098014 C20.3179091,20.2098014 16.4820682,18.2611111 13.9157727,15.2 C12.7472727,18.5984846 9.97370455,20.9913617 6.73377273,20.9913617 C6.20263636,20.9913617 5.68315909,20.9262317 5.18181818,20.8037872 L5.18181818,22.5544823 C3.89413636,22.5544823 2.85,23.6043783 2.85,24.8991631 L2.85,25.6807234 C2.85,26.9755083 3.89413636,28.0254043 5.18181818,28.0254043 C5.25565909,28.0254043 5.32431818,28.009773 5.39686364,28.0045626 C6.49022727,34.2322955 11.8870909,38.9672482 18.3954545,38.9672482 C24.9038182,38.9672482 30.3006818,34.2322955 31.3940455,28.0045626 C31.4665909,28.009773 31.53525,28.0254043 31.6090909,28.0254043 C32.8967727,28.0254043 33.9409091,26.9755083 33.9409091,25.6807234 L33.9409091,24.8991631 C33.9409091,23.6043783 32.8967727,22.5544823 31.6090909,22.5544823" id="Fill-53" fill="#FFCEBF"></path>
                    <path d="M31.6090909,22.5544823 L31.6090909,19.4282411 C31.6090909,19.0622104 31.5831818,18.7026927 31.5546818,18.3444775 C29.5065682,19.5246336 27.1410682,20.2098014 24.6110455,20.2098014 C20.3179091,20.2098014 16.4820682,18.2611111 13.9157727,15.2 C12.7472727,18.5984846 9.97370455,20.9913617 6.73377273,20.9913617 C6.20263636,20.9913617 5.68315909,20.9262317 5.18181818,20.8037872 L5.18181818,22.5544823 C3.89413636,22.5544823 2.85,23.6043783 2.85,24.8991631 L2.85,25.6807234 C2.85,26.9755083 3.89413636,28.0254043 5.18181818,28.0254043 C5.25565909,28.0254043 5.32431818,28.009773 5.39686364,28.0045626 C6.49022727,34.2322955 11.8870909,38.9672482 18.3954545,38.9672482 C24.9038182,38.9672482 30.3006818,34.2322955 31.3940455,28.0045626 C31.4665909,28.009773 31.53525,28.0254043 31.6090909,28.0254043 C32.8967727,28.0254043 33.9409091,26.9755083 33.9409091,25.6807234 L33.9409091,24.8991631 C33.9409091,23.6043783 32.8967727,22.5544823 31.6090909,22.5544823 Z" id="Stroke-55" stroke="#33424F" stroke-width="1.5" stroke-linecap="round" stroke-linejoin="round"></path>
                    <path d="M12.6090909,29.1631206 C12.6090909,30.0267447 11.9134318,30.7262411 11.0545455,30.7262411 C10.1956591,30.7262411 9.5,30.0267447 9.5,29.1631206 C9.5,28.2994965 10.1956591,27.6 11.0545455,27.6 C11.9134318,27.6 12.6090909,28.2994965 12.6090909,29.1631206" id="Fill-57" fill="#FFB59E"></path>
                    <path d="M26.8590909,29.1631206 C26.8590909,30.0267447 26.1634318,30.7262411 25.3045455,30.7262411 C24.4456591,30.7262411 23.75,30.0267447 23.75,29.1631206 C23.75,28.2994965 24.4456591,27.6 25.3045455,27.6 C26.1634318,27.6 26.8590909,28.2994965 26.8590909,29.1631206" id="Fill-59" fill="#FFB59E"></path>
                    <path d="M16,32 C17.5133333,33.3406882 19.4858333,33.3406882 21,32" id="Stroke-61" stroke="#33424F" stroke-width="1.5" stroke-linecap="round" stroke-linejoin="round"></path>
                    <path d="M0,28.5 L0,30.8446809 C0,34.7290355 3.13111364,37.8787234 6.99545455,37.8787234 L10.8818182,37.8787234" id="Stroke-67" stroke="#33424F" stroke-width="1.5" stroke-linecap="round" stroke-linejoin="round"></path>
                    <path d="M4.66363636,29.6656028 L1.55454545,29.6656028 C0.695659091,29.6656028 0,28.9661064 0,28.1024823 L0,23.4131206 C0,22.5494965 0.695659091,21.85 1.55454545,21.85 L4.66363636,21.85 L4.66363636,29.6656028 Z" id="Fill-69" fill="#FFFFFF"></path>
                    <path d="M4.66363636,29.6656028 L1.55454545,29.6656028 C0.695659091,29.6656028 0,28.9661064 0,28.1024823 L0,23.4131206 C0,22.5494965 0.695659091,21.85 1.55454545,21.85 L4.66363636,21.85 L4.66363636,29.6656028 Z" id="Stroke-71" stroke="#33424F" stroke-width="1.5" stroke-linecap="round" stroke-linejoin="round"></path>
                    <path d="M2.85,28.1024823 C2.85,28.9661064 3.54565909,29.6656028 4.40454545,29.6656028 C5.26343182,29.6656028 5.95909091,28.9661064 5.95909091,28.1024823 L5.95909091,23.4131206 C5.95909091,22.5494965 5.26343182,21.85 4.40454545,21.85 C3.54565909,21.85 2.85,22.5494965 2.85,23.4131206 L2.85,28.1024823 Z" id="Fill-73" fill="#7A8691"></path>
                    <path d="M2.85,28.1024823 C2.85,28.9661064 3.54565909,29.6656028 4.40454545,29.6656028 C5.26343182,29.6656028 5.95909091,28.9661064 5.95909091,28.1024823 L5.95909091,23.4131206 C5.95909091,22.5494965 5.26343182,21.85 4.40454545,21.85 C3.54565909,21.85 2.85,22.5494965 2.85,23.4131206 L2.85,28.1024823 Z" id="Stroke-75" stroke="#33424F" stroke-width="1.5" stroke-linecap="round" stroke-linejoin="round"></path>
                    <path d="M32.3,29.6656028 L35.4090909,29.6656028 C36.2679773,29.6656028 36.9636364,28.9661064 36.9636364,28.1024823 L36.9636364,23.4131206 C36.9636364,22.5494965 36.2679773,21.85 35.4090909,21.85 L32.3,21.85 L32.3,29.6656028 Z" id="Fill-77" fill="#FFFFFF"></path>
                    <path d="M32.3,29.6656028 L35.4090909,29.6656028 C36.2679773,29.6656028 36.9636364,28.9661064 36.9636364,28.1024823 L36.9636364,23.4131206 C36.9636364,22.5494965 36.2679773,21.85 35.4090909,21.85 L32.3,21.85 L32.3,29.6656028 Z" id="Stroke-79" stroke="#33424F" stroke-width="1.5" stroke-linecap="round" stroke-linejoin="round"></path>
                    <path d="M33.5090909,28.1024823 C33.5090909,28.9661064 32.8134318,29.6656028 31.9545455,29.6656028 C31.0956591,29.6656028 30.4,28.9661064 30.4,28.1024823 L30.4,23.4131206 C30.4,22.5494965 31.0956591,21.85 31.9545455,21.85 C32.8134318,21.85 33.5090909,22.5494965 33.5090909,23.4131206 L33.5090909,28.1024823 Z" id="Fill-81" fill="#7A8691"></path>
                    <path d="M33.5090909,28.1024823 C33.5090909,28.9661064 32.8134318,29.6656028 31.9545455,29.6656028 C31.0956591,29.6656028 30.4,28.9661064 30.4,28.1024823 L30.4,23.4131206 C30.4,22.5494965 31.0956591,21.85 31.9545455,21.85 C32.8134318,21.85 33.5090909,22.5494965 33.5090909,23.4131206 L33.5090909,28.1024823 Z" id="Stroke-83" stroke="#33424F" stroke-width="1.5" stroke-linecap="round" stroke-linejoin="round"></path>
                    <path d="M15.1136364,37.4946809 C15.1136364,38.7894657 14.0695,39.8393617 12.7818182,39.8393617 C11.4941364,39.8393617 10.45,38.7894657 10.45,37.4946809 C10.45,36.199896 11.4941364,35.15 12.7818182,35.15 C14.0695,35.15 15.1136364,36.199896 15.1136364,37.4946809" id="Fill-85" fill="#33424F"></path>
                    <path d="M15.1136364,37.4946809 C15.1136364,38.7894657 14.0695,39.8393617 12.7818182,39.8393617 C11.4941364,39.8393617 10.45,38.7894657 10.45,37.4946809 C10.45,36.199896 11.4941364,35.15 12.7818182,35.15 C14.0695,35.15 15.1136364,36.199896 15.1136364,37.4946809 Z" id="Stroke-87" stroke="#33424F" stroke-linecap="round" stroke-linejoin="round"></path>
                    <path d="M0,25.7914894 L0,18.7574468 C0,8.39786525 8.35179545,0 18.6545455,0 C28.9572955,0 37.3090909,8.39786525 37.3090909,18.7574468 L37.3090909,25.7914894" id="Stroke-89" stroke="#33424F" stroke-width="1.5" stroke-linecap="round" stroke-linejoin="round"></path>
                    <g id="Group-58" transform="translate(13.000000, 24.000000)" fill="#33424F" fill-rule="nonzero">
                        <path d="M0,1.39911343 C0,2.17226079 0.62556961,2.79999995 1.39999998,2.79999995 C2.17265819,2.79999995 2.79999995,2.17226079 2.79999995,1.39911343 C2.79999995,0.627739158 2.17265819,0 1.39999998,0 C0.62556961,0 0,0.627739158 0,1.39911343 Z" id="Fill-25" transform="translate(1.400000, 1.400000) scale(-1, 1) translate(-1.400000, -1.400000) "></path>
                        <path d="M8,1.39911343 C8,2.17226079 8.62556961,2.79999995 9.39999998,2.79999995 C10.1726582,2.79999995 10.8,2.17226079 10.8,1.39911343 C10.8,0.627739158 10.1726582,0 9.39999998,0 C8.62556961,0 8,0.627739158 8,1.39911343 Z" id="Fill-25-Copy" transform="translate(9.400000, 1.400000) scale(-1, 1) translate(-9.400000, -1.400000) "></path>
                    </g>
                </g>
                <path d="M19,90 C27.5384647,108.867745 46.4833955,122 68.5,122 C90.5166045,122 109.461535,108.867745 118,90 L19,90 Z" id="Fill-3" fill="#67CDCC" opacity="0.12"></path>
                <g id="Group-48" transform="translate(8.000000, 90.000000)" stroke="#33424F" stroke-linecap="round" stroke-linejoin="round" stroke-width="1.5">
                    <path d="M0.665181818,0.471820331 L4.07427273,0.471820331" id="Stroke-7"></path>
                    <path d="M115.892455,0.471820331 L119.301545,0.471820331" id="Stroke-9"></path>
                    <path d="M6.80154545,0.471820331 L113.165182,0.471820331" id="Stroke-5"></path>
                </g>
                <path d="M57.4542562,80.4385965 L57.4542562,86.2132749 C57.4542562,97.0823684 53.625262,98.5789474 49.3762784,98.5789474 L47.6363223,98.5789474 L46,98.5789474 L46,106 L47.6363223,106 L49.3762784,106 C55.3202192,106 65.6358678,101.010029 65.6358678,91.159269 L91.8183884,91.159269 C91.8183884,97.4314327 87.2298679,98.5789474 83.739047,98.5789474 L81.9990909,98.5789474 L80.3627686,98.5789474 L80.3627686,106 L81.9990909,106 L83.739047,106 C90.4561501,106 100,104.555643 100,91.1565205 L100,80.4385965 C100,68.5978947 90.4752405,59 78.7264463,59 C66.9790157,59 57.4542562,68.5978947 57.4542562,80.4385965 Z" id="Fill-17" fill="#4D9A9A"></path>
                <path d="M57,79.2716529 L57,85 C57,73.252866 66.6253846,63.7283471 78.5,63.7283471 C90.3746154,63.7283471 100,73.252866 100,85 L100,79.2716529 C100,67.5231554 90.3746154,58 78.5,58 C66.6253846,58 57,67.5231554 57,79.2716529 Z" id="Fill-19" fill="#90C9CB"></path>
                <path d="M78.7264463,58 C66.9790157,58 57.4542562,67.5978947 57.4542562,79.4385965 L57.4542562,85.2132749 C57.4542562,96.0823684 53.625262,97.5789474 49.3762784,97.5789474 L46,97.5789474 L46,105 L49.3762784,105 C55.3202192,105 65.6358678,100.010029 65.6358678,90.159269 L91.8183884,90.159269 C91.8183884,96.4314327 87.2298679,97.5789474 83.739047,97.5789474 L80.3627686,97.5789474 L80.3627686,105 L83.739047,105 C90.4561501,105 100,103.555643 100,90.1565205 L100,79.4385965 C100,67.5978947 90.4752405,58 78.7264463,58 Z" id="Stroke-21" stroke="#33424F" stroke-width="1.5" stroke-linecap="round" stroke-linejoin="round"></path>
                <path d="M66,81 L66,91" id="Stroke-23" stroke="#33424F" stroke-width="1.5" stroke-linecap="round" stroke-linejoin="round"></path>
                <path d="M92,81 L92,91" id="Stroke-25" stroke="#33424F" stroke-width="1.5" stroke-linecap="round" stroke-linejoin="round"></path>
                <path d="M58.5,108 C72.0308056,108 83,107.105333 83,106 C83,104.894667 72.0308056,104 58.5,104 C44.9691944,104 34,104.894667 34,106 C34,107.105333 44.9691944,108 58.5,108 Z" id="Fill-27" fill-opacity="0.2" fill="#B4BFC9"></path>
                <path d="M81,105 L78.4285714,105 C76.5357143,105 75,103.432292 75,101.5 C75,99.56625 76.5357143,98 78.4285714,98 L81,98 L81,105 Z" id="Fill-29" fill="#FFCEBF"></path>
                <path d="M81,105 L78.4285714,105 C76.5357143,105 75,103.432292 75,101.5 C75,99.56625 76.5357143,98 78.4285714,98 L81,98 L81,105 Z" id="Stroke-31" stroke="#33424F" stroke-width="1.5" stroke-linecap="round" stroke-linejoin="round"></path>
                <path d="M46,105 L43.4285714,105 C41.5357143,105 40,103.432292 40,101.5 C40,99.56625 41.5357143,98 43.4285714,98 L46,98 L46,105 Z" id="Fill-33" fill="#FFDCD1"></path>
                <path d="M46,105 L43.4285714,105 C41.5357143,105 40,103.432292 40,101.5 C40,99.56625 41.5357143,98 43.4285714,98 L46,98 L46,105 Z" id="Stroke-35" stroke="#1A1816" stroke-linecap="round" stroke-linejoin="round"></path>
                <path d="M79,69 L79,90" id="Stroke-37" stroke="#33424F" stroke-width="1.5" stroke-linecap="round" stroke-linejoin="round"></path>
                <path d="M83.0150033,61.9755931 L78.8354384,69 L74,60.5408974 L74,59.9918644 C74.7566864,59.3306215 76.4483586,59 79.0750165,59 C81.7016743,59 83.3433355,59.3306215 84,59.9918644 L83.0150033,61.9755931 Z" id="Fill-39" fill="#FFCEBF"></path>
                <polygon id="Stroke-43" stroke="#33424F" stroke-width="1.5" stroke-linecap="round" stroke-linejoin="round" points="84 59.1136364 79 69 74 59.1136364 74 59 79 69 84 59"></polygon>
                <path d="M70.9581371,66.4863681 C71.229705,66.8167845 71.6532384,67.0076626 72.097878,66.9997642 C72.5439247,66.9918657 72.9590156,66.7878237 73.2179197,66.4481925 L75.7380134,63.1479771 C76.0940065,62.6819714 76.0869711,62.0527321 75.7183141,61.5933084 L73.6386388,59 C71.2494042,59.5476225 69.0121351,60.4598878 67,61.6722925 L70.9581371,66.4863681 Z" id="Fill-45" fill="#90C9CB"></path>
                <path d="M70.9581371,66.4863681 C71.229705,66.8167845 71.6532384,67.0076626 72.097878,66.9997642 C72.5439247,66.9918657 72.9590156,66.7878237 73.2179197,66.4481925 L75.7380134,63.1479771 C76.0940065,62.6819714 76.0869711,62.0527321 75.7183141,61.5933084 L73.6386388,59 C71.2494042,59.5476225 69.0121351,60.4598878 67,61.6722925 L70.9581371,66.4863681 Z" id="Stroke-47" stroke="#33424F" stroke-width="1.5" stroke-linecap="round" stroke-linejoin="round"></path>
                <path d="M87.0418629,66.4863681 C86.770295,66.8167845 86.3467616,67.0076626 85.9007149,66.9997642 C85.4560753,66.9918657 85.0409844,66.7878237 84.7820803,66.4481925 L82.2619866,63.1479771 C81.9059935,62.6819714 81.9130289,62.0527321 82.2816859,61.5933084 L84.3599541,59 C86.7505958,59.5476225 88.9878649,60.4598878 91,61.6722925 L87.0418629,66.4863681 Z" id="Fill-49" fill="#90C9CB"></path>
                <path d="M87.0418629,66.4863681 C86.770295,66.8167845 86.3467616,67.0076626 85.9007149,66.9997642 C85.4560753,66.9918657 85.0409844,66.7878237 84.7820803,66.4481925 L82.2619866,63.1479771 C81.9059935,62.6819714 81.9130289,62.0527321 82.2816859,61.5933084 L84.3599541,59 C86.7505958,59.5476225 88.9878649,60.4598878 91,61.6722925 L87.0418629,66.4863681 Z" id="Stroke-51" stroke="#33424F" stroke-width="1.5" stroke-linecap="round" stroke-linejoin="round"></path>
                <path d="M63.909895,102 L67,102 L60.3996683,81.9389032 C60.2158651,81.3793548 59.6838032,81 59.0854063,81 L57,81 L63.909895,102 Z" id="Fill-91" fill="#E9EDF0"></path>
                <path d="M63.909895,102 L67,102 L60.3996683,81.9389032 C60.2158651,81.3793548 59.6838032,81 59.0854063,81 L57,81 L63.909895,102 Z" id="Stroke-93" stroke="#33424F" stroke-width="1.5" stroke-linejoin="round"></path>
                <path d="M36.3278216,102 L63,102 L56.1609799,81 L31.3681642,81 C30.9304669,81 30.5201257,81.2072903 30.2616107,81.5568387 C30.0044636,81.9077419 29.93197,82.3575484 30.0660148,82.7707742 L36.3278216,102 Z" id="Fill-95" fill="#E9EDF0"></path>
                <path d="M55.6304527,81 L31.3404187,81 C30.9115977,81 30.5095779,81.1930599 30.2563055,81.518612 C30.0043731,81.8454259 29.9333496,82.2643533 30.064676,82.6492114 L30.8687156,85 L57,85 L55.6304527,81 Z" id="Fill-97" fill="#E9EDF0"></path>
                <path d="M37,102 L65,102 L65,105 L39.7317073,105 C38.2238049,105 37,103.9248 37,102.6 L37,102 Z" id="Fill-99" fill="#E9EDF0"></path>
                <path d="M37,102 L65,102 L65,105 L39.7317073,105 C38.2238049,105 37,103.9248 37,102.6 L37,102 Z" id="Stroke-101" stroke="#33424F" stroke-width="1.5" stroke-linejoin="round"></path>
                <path d="M65,102 L77.3193005,102 C77.6950466,102 78,102.2688 78,102.6 C78,103.9248 76.7815478,105 75.2772018,105 L65,105 L65,102 Z" id="Fill-103" fill="#E9EDF0"></path>
                <path d="M65,102 L77.3193005,102 C77.6950466,102 78,102.2688 78,102.6 C78,103.9248 76.7815478,105 75.2772018,105 L65,105 L65,102 Z" id="Stroke-105" stroke="#33424F" stroke-width="1.5" stroke-linejoin="round"></path>
                <path d="M36.3278216,102 L63,102 L56.1609799,81 L31.3681642,81 C30.9304669,81 30.5201257,81.2072903 30.2616107,81.5568387 C30.0044636,81.9077419 29.93197,82.3575484 30.0660148,82.7707742 L36.3278216,102 Z" id="Stroke-113" stroke="#33424F" stroke-width="1.5" stroke-linejoin="round"></path>
            </g>
        </g>
    </g>
</svg>