<?xml version="1.0" encoding="UTF-8"?>
<svg width="121px" height="110px" viewBox="0 0 121 110" version="1.1" xmlns="http://www.w3.org/2000/svg" xmlns:xlink="http://www.w3.org/1999/xlink">
    <!-- Generator: Sketch 50.2 (55047) - http://www.bohemiancoding.com/sketch -->
    <title>icon-powerful-tools</title>
    <desc>Created with Sketch.</desc>
    <defs></defs>
    <g id="Marketing-Pages" stroke="none" stroke-width="1" fill="none" fill-rule="evenodd">
        <g id="Non-HubSpot-Home-Page" transform="translate(-899.000000, -2509.000000)">
            <g id="icon-powerful-tools" transform="translate(892.000000, 2496.000000)">
                <g id="Group-14" transform="translate(8.000000, 13.000000)">
                    <g id="37--programming-macbook-html">
                        <g id="Group-50" transform="translate(5.000000, 0.000000)" fill="#FF6800" opacity="0.12">
                            <g id="Group-53">
                                <path d="M55.4621364,0 C25.3380455,0 0.916681818,24.5772447 0.916681818,54.893617 C0.916681818,62.9698404 2.6635,70.631617 5.77668182,77.537234 L105.147591,77.537234 C108.259409,70.631617 110.007591,62.9698404 110.007591,54.893617 C110.007591,24.5772447 85.5862273,0 55.4621364,0 Z" id="Fill-1"></path>
                                <path d="M5.77654545,77.537234 C14.347,96.552383 33.3629091,109.787234 55.462,109.787234 C77.5610909,109.787234 96.577,96.552383 105.147455,77.537234 L5.77654545,77.537234 Z" id="Fill-3"></path>
                            </g>
                        </g>
                        <path d="M6.5985,77.537234 L112.962136,77.537234" id="Stroke-5" stroke="#33424F" stroke-linecap="round" stroke-linejoin="round"></path>
                        <path d="M0.462136364,77.537234 L3.87122727,77.537234" id="Stroke-7" stroke="#33424F" stroke-linecap="round" stroke-linejoin="round"></path>
                        <path d="M115.689409,77.537234 L119.0985,77.537234" id="Stroke-9" stroke="#33424F" stroke-linecap="round" stroke-linejoin="round"></path>
                        <g id="Group-16" transform="translate(0.000000, 77.000000)" stroke="#33424F" stroke-linecap="round" stroke-linejoin="round" stroke-width="1.5">
                            <polyline id="Stroke-5" points="6.5985 0.537234043 110 0.537234043 112.962136 0.537234043"></polyline>
                            <path d="M0.462136364,0.537234043 L3.87122727,0.537234043" id="Stroke-7"></path>
                            <path d="M115.689409,0.537234043 L119.0985,0.537234043" id="Stroke-9"></path>
                        </g>
                        <path d="M88.5724091,44.0093106 L27.3792273,44.0093106 C25.8737727,44.0093106 24.6519545,45.2389277 24.6519545,46.7539915 L24.6519545,86.5916617 L91.2996818,86.5916617 L91.2996818,46.7539915 C91.2996818,45.2389277 90.0792273,44.0093106 88.5724091,44.0093106" id="Fill-11" fill="#7A8691"></path>
                        <path d="M88.5724091,44.0093106 L27.3792273,44.0093106 C25.8737727,44.0093106 24.6519545,45.2389277 24.6519545,46.7539915 L24.6519545,86.5916617 L91.2996818,86.5916617 L91.2996818,46.7539915 C91.2996818,45.2389277 90.0792273,44.0093106 88.5724091,44.0093106 Z" id="Stroke-13" stroke="#33424F" stroke-width="1.5" stroke-linecap="round" stroke-linejoin="round"></path>
                        <path d="M30.3636364,49 C29.6109091,49 29,49.6148085 29,50.3723404 L29,86.8477766 L86.2386364,86.8477766 L86.2386364,50.3723404 C86.2386364,49.6148085 85.6277273,49 84.875,49 L30.3636364,49 Z" id="Fill-15" fill="#FFFFFF"></path>
                        <path d="M72.4165909,48.7441596 L32.0352273,86.5919362 L29.4225,86.5919362 L29.4225,50.3223511 C29.4225,49.4509149 30.1247727,48.7441596 30.9906818,48.7441596 L72.4165909,48.7441596 Z" id="Fill-17" fill="#FFFFFF"></path>
                        <g id="Group-13" transform="translate(34.000000, 54.000000)" fill="#E9EDF0">
                            <g id="Group-12">
                                <path d="M1,0 L22,0 L22,8 L1,8 C0.44771525,8 6.76353751e-17,7.55228475 0,7 L0,1 C-6.76353751e-17,0.44771525 0.44771525,1.01453063e-16 1,0 Z" id="Rectangle-4"></path>
                                <polygon id="Triangle" points="24.9360352 3.96801758 22 7.93603516 22 0"></polygon>
                            </g>
                            <g id="Group-12-Copy" transform="translate(0.000000, 10.000000)">
                                <path d="M1,0 L22,0 L22,8 L1,8 C0.44771525,8 6.76353751e-17,7.55228475 0,7 L0,1 C-6.76353751e-17,0.44771525 0.44771525,1.01453063e-16 1,0 Z" id="Rectangle-4"></path>
                                <polygon id="Triangle" points="24.9360352 3.96801758 22 7.93603516 22 0"></polygon>
                            </g>
                            <g id="Group-12-Copy-2" transform="translate(0.000000, 20.000000)">
                                <path d="M1,0 L22,0 L22,8 L1,8 C0.44771525,8 6.76353751e-17,7.55228475 0,7 L0,1 C-6.76353751e-17,0.44771525 0.44771525,1.01453063e-16 1,0 Z" id="Rectangle-4"></path>
                                <polygon id="Triangle" points="24.9360352 3.96801758 22 7.93603516 22 0"></polygon>
                            </g>
                        </g>
                        <path d="M85.2319091,48.7441596 L30.7205455,48.7441596 C29.9678182,48.7441596 29.3569091,49.3589681 29.3569091,50.1165 L29.3569091,86.5919362 L86.5955455,86.5919362 L86.5955455,50.1165 C86.5955455,49.3589681 85.9846364,48.7441596 85.2319091,48.7441596 Z" id="Stroke-19" stroke="#33424F" stroke-width="1.5" stroke-linecap="round" stroke-linejoin="round"></path>
                        <path d="M95.2727273,96.3672872 C95.2727273,97.6751277 78.4236364,98.7345745 57.6363636,98.7345745 C36.8504545,98.7345745 20,97.6751277 20,96.3672872 C20,95.0594468 36.8504545,94 57.6363636,94 C78.4236364,94 95.2727273,95.0594468 95.2727273,96.3672872" id="Fill-21" fill-opacity="0.2" fill="#7A8691"></path>
                        <path d="M97.1803636,91.3256872 L18.7712727,91.3256872 L18.7712727,87.9634532 C18.7712727,87.2059213 19.3821818,86.5911128 20.1349091,86.5911128 L95.8167273,86.5911128 C96.5694545,86.5911128 97.1803636,87.2059213 97.1803636,87.9634532 L97.1803636,91.3256872 Z" id="Fill-23" fill="#ADB3B9"></path>
                        <path d="M97.1803636,91.3256872 L18.7712727,91.3256872 L18.7712727,87.9634532 C18.7712727,87.2059213 19.3821818,86.5911128 20.1349091,86.5911128 L95.8167273,86.5911128 C96.5694545,86.5911128 97.1803636,87.2059213 97.1803636,87.9634532 L97.1803636,91.3256872 Z" id="Stroke-25" stroke="#33424F" stroke-width="1.5" stroke-linecap="round" stroke-linejoin="round"></path>
                        <path d="M97.1803636,91.3263734 C89.8985455,93.4205649 82.3603636,94.4827564 74.7867273,94.4827564 L41.1649091,94.4827564 C33.5912727,94.4827564 26.0544545,93.4205649 18.7712727,91.3263734 L97.1803636,91.3263734 Z" id="Fill-27" fill="#7A8691"></path>
                        <path d="M74.7867273,94.4827564 L41.1649091,94.4827564 C33.5912727,94.4827564 26.0544545,93.4205649 18.7712727,91.3263734 L97.1803636,91.3263734 C89.8985455,93.4205649 82.3603636,94.4827564 74.7867273,94.4827564 Z" id="Stroke-29" stroke="#33424F" stroke-width="1.5" stroke-linecap="round" stroke-linejoin="round"></path>
                        <path d="M88.1635909,44.0093106 L62.7522273,44.0093106 C65.4549545,56.5181936 76.5072273,65.8926511 89.7467727,65.8926511 C90.2704091,65.8926511 90.7831364,65.8418745 91.2999545,65.8130553 L91.2999545,47.1656936 C91.2999545,45.4228213 89.8967727,44.0093106 88.1635909,44.0093106" id="Fill-31" fill="#33424F" opacity="0.15"></path>
                        <path d="M89.7465,61.3691426 C76.9637727,61.3691426 66.6015,50.9407277 66.6015,38.0764085 C66.6015,25.2120894 76.9637727,14.7836745 89.7465,14.7836745 C102.529227,14.7836745 112.8915,25.2120894 112.8915,38.0764085 C112.8915,50.9407277 102.529227,61.3691426 89.7465,61.3691426 Z" id="Fill-33" fill="#F7F8FA"></path>
                        <path d="M84.8856879,48.2049591 C84.1270289,48.2049591 83.3695723,47.9133524 82.7912601,47.3313489 L76.8674682,41.3709555 C75.7108439,40.2057385 75.7108439,38.3193696 76.8674682,37.1553626 C78.0240925,35.9913557 79.8996994,35.9913557 81.0551214,37.1553626 L84.8856879,41.0091695 L96.9436763,28.8730052 C98.1003006,27.7089983 99.9747052,27.7089983 101.132532,28.8730052 C102.289156,30.0382222 102.289156,31.9233811 101.132532,33.0885981 L86.9789133,47.3313489 C86.4006012,47.9133524 85.6431445,48.2049591 84.8856879,48.2049591 Z" id="Stroke-41" fill="#FF6800"></path>
                        <path d="M89.7463636,23.5180723 C101.044091,23.5180723 110.438182,31.6697745 112.471364,42.4440191 C112.738636,41.0277638 112.891364,39.5703383 112.891364,38.0758596 C112.891364,25.2115404 102.529091,14.7831255 89.7463636,14.7831255 C76.9636364,14.7831255 66.6013636,25.2115404 66.6013636,38.0758596 C66.6013636,39.5703383 66.7554545,41.0277638 67.0213636,42.4440191 C69.0545455,31.6697745 78.4486364,23.5180723 89.7463636,23.5180723" id="Fill-35" fill="#FFFFFF"></path>
                        <path d="M112.29,38.292734 C112.29,51.1570532 101.927727,61.5854681 89.145,61.5854681 C76.3622727,61.5854681 66,51.1570532 66,38.292734 C66,25.4284149 76.3622727,15 89.145,15 C101.927727,15 112.29,25.4284149 112.29,38.292734 Z" id="Stroke-37" stroke="#33424F" stroke-width="1.5" stroke-linecap="round" stroke-linejoin="round"></path>
                    </g>
                </g>
            </g>
        </g>
    </g>
</svg>