<?xml version="1.0" encoding="iso-8859-1"?>
<!-- Generator: Adobe Illustrator 19.0.0, SVG Export Plug-In . SVG Version: 6.00 Build 0)  -->
<svg version="1.1" id="Layer_1" xmlns="http://www.w3.org/2000/svg" xmlns:xlink="http://www.w3.org/1999/xlink" x="0px" y="0px"
	 viewBox="0 0 512 512" style="enable-background:new 0 0 512 512;" xml:space="preserve">
<g>
	<g>
		<g>
			<path d="M438.251,0H320H192H73.749C33.088,0,0,33.088,0,73.749v364.501C0,478.912,33.088,512,73.749,512h96.917
				c11.797,0,21.333-9.557,21.333-21.333s-9.536-21.333-21.333-21.333H73.749c-17.152,0-31.083-13.952-31.083-31.083V73.749
				c0-17.131,13.931-31.083,31.083-31.083h96.917v106.667c0,7.872,4.331,15.104,11.264,18.816c6.933,3.712,15.36,3.285,21.909-1.067
				L256,132.309l52.16,34.773c3.563,2.389,7.701,3.584,11.84,3.584c3.456,0,6.912-0.832,10.069-2.517
				c6.933-3.712,11.264-10.944,11.264-18.816V42.667h96.917c17.152,0,31.083,13.952,31.083,31.083v75.584
				c0,11.776,9.536,21.333,21.333,21.333S512,161.109,512,149.333V73.749C512,33.088,478.912,0,438.251,0z"/>
			<path d="M362.667,213.333c-82.325,0-149.333,66.987-149.333,149.333S280.341,512,362.667,512S512,445.013,512,362.667
				S444.992,213.333,362.667,213.333z M426.667,384h-76.501l6.251,6.251c8.341,8.341,8.341,21.824,0,30.165
				c-4.16,4.16-9.621,6.251-15.083,6.251c-5.461,0-10.923-2.091-15.083-6.251l-42.645-42.645c-1.984-1.984-3.541-4.331-4.629-6.955
				c-2.155-5.205-2.155-11.093,0-16.299c1.088-2.624,2.645-4.971,4.629-6.955l42.645-42.645c8.341-8.341,21.824-8.341,30.165,0
				c8.341,8.341,8.341,21.824,0,30.165l-6.251,6.251h76.501c11.797,0,21.333,9.557,21.333,21.333S438.464,384,426.667,384z"/>
		</g>
	</g>
</g>
<g>
</g>
<g>
</g>
<g>
</g>
<g>
</g>
<g>
</g>
<g>
</g>
<g>
</g>
<g>
</g>
<g>
</g>
<g>
</g>
<g>
</g>
<g>
</g>
<g>
</g>
<g>
</g>
<g>
</g>
</svg>
